<svg width="181" height="181" viewBox="0 0 181 181" fill="none" xmlns="http://www.w3.org/2000/svg">
<path d="M176.042 115.136L171.09 112.27L176.042 110.839V115.136Z" fill="#FF6A89"/>
<g opacity="0.6">
<path opacity="0.6" d="M176.042 115.136L171.09 112.27L176.042 110.839V115.136Z" fill="white"/>
</g>
<g style="mix-blend-mode:multiply" opacity="0.05">
<g style="mix-blend-mode:multiply" opacity="0.05">
<path d="M176.042 115.136L171.09 112.27L176.042 110.839V115.136Z" fill="black"/>
</g>
</g>
<path d="M151.218 125.186V129.753L115.359 109.04V104.473L151.218 125.186Z" fill="#FF6A89"/>
<g opacity="0.6">
<path opacity="0.6" d="M151.218 125.186V129.753L115.359 109.04V104.473L151.218 125.186Z" fill="white"/>
</g>
<g style="mix-blend-mode:multiply" opacity="0.1">
<g style="mix-blend-mode:multiply" opacity="0.1">
<path d="M151.218 125.186V129.753L115.359 109.04V104.473L151.218 125.186Z" fill="black"/>
</g>
</g>
<path d="M112.881 68.6702L148.739 89.3826V126.617L112.881 105.904V68.6702Z" fill="#FF6A89"/>
<g opacity="0.6">
<path opacity="0.6" d="M112.881 68.6702L148.739 89.3826V126.617L112.881 105.904V68.6702Z" fill="white"/>
</g>
<path d="M148.739 89.3825L181 70.7422V107.976L148.739 126.617V89.3825Z" fill="#FF6A89"/>
<g opacity="0.75">
<path opacity="0.75" d="M148.739 89.3825L181 70.7422V107.976L148.739 126.617V89.3825Z" fill="white"/>
</g>
<path d="M181 70.7424L145.142 50.0253L112.881 68.6702L148.739 89.3827L181 70.7424Z" fill="#FF6A89"/>
<g opacity="0.85">
<path opacity="0.85" d="M181 70.7424L145.142 50.0253L112.881 68.6702L148.739 89.3827L181 70.7424Z" fill="white"/>
</g>
<path d="M151.218 90.8183L178.521 75.0354V83.6308L151.218 99.409V90.8183Z" fill="#FF6A89"/>
<g opacity="0.85">
<path opacity="0.85" d="M151.218 90.8183L178.521 75.0354V83.6308L151.218 99.409V90.8183Z" fill="white"/>
</g>
<path d="M151.218 102.276L178.521 86.4927V106.545L151.218 122.324V102.276Z" fill="#FF6A89"/>
<g opacity="0.7">
<path opacity="0.7" d="M151.218 102.276L178.521 86.4927V106.545L151.218 122.324V102.276Z" fill="white"/>
</g>
<path d="M151.218 129.753L153.697 128.322V123.755L151.218 125.186V129.753Z" fill="#FF6A89"/>
<g opacity="0.75">
<path opacity="0.75" d="M151.218 129.753L153.697 128.322V123.755L151.218 125.186V129.753Z" fill="white"/>
</g>
<path d="M176.042 115.136L178.521 113.705V109.407L176.042 110.838V115.136Z" fill="#FF6A89"/>
<g opacity="0.75">
<path opacity="0.75" d="M176.042 115.136L178.521 113.705V109.407L176.042 110.838V115.136Z" fill="white"/>
</g>
<path d="M159.68 87.7378C159.68 88.1327 160.864 87.7703 162.321 86.9247L166.963 84.2485C168.425 83.4076 169.609 82.3901 169.609 82.0091V81.2936L159.694 87.0176L159.68 87.7378Z" fill="#455A64"/>
<g style="mix-blend-mode:multiply" opacity="0.1">
<path d="M178.521 106.545L161.291 96.4493L151.218 102.276V122.324L178.521 106.545Z" fill="black"/>
</g>
<g style="mix-blend-mode:multiply" opacity="0.05">
<path d="M178.521 106.545L161.291 96.4493L178.521 86.4927V106.545Z" fill="black"/>
</g>
<path d="M73.5779 159.321H65.6868L66.9494 167.029C66.9978 167.241 67.0952 167.439 67.2338 167.607C67.3725 167.775 67.5485 167.908 67.7478 167.995C68.339 168.295 68.9926 168.452 69.6556 168.452C70.3185 168.452 70.9721 168.295 71.5634 167.995C71.7538 167.904 71.9213 167.77 72.0538 167.606C72.1863 167.441 72.2804 167.249 72.3293 167.043L73.5779 159.321Z" fill="#FAFAFA"/>
<path d="M66.8195 157.495C65.2737 158.387 65.2737 159.841 66.8195 160.747C67.6881 161.189 68.6487 161.42 69.6231 161.42C70.5976 161.42 71.5582 161.189 72.4268 160.747C73.9726 159.855 73.9726 158.401 72.4268 157.495C71.5582 157.053 70.5976 156.823 69.6231 156.823C68.6487 156.823 67.6881 157.053 66.8195 157.495Z" fill="#FAFAFA"/>
<path d="M38.1326 138.725H30.2415L31.504 146.433C31.5537 146.635 31.6478 146.823 31.7795 146.984C31.9112 147.144 32.0772 147.274 32.2653 147.362C32.8574 147.662 33.5118 147.818 34.1754 147.818C34.8391 147.818 35.4935 147.662 36.0856 147.362C36.273 147.272 36.4387 147.142 36.571 146.982C36.7032 146.821 36.799 146.634 36.8515 146.433L38.1326 138.725Z" fill="#FAFAFA"/>
<path d="M31.3835 136.903C29.8331 137.796 29.8331 139.25 31.3835 140.156C32.2512 140.598 33.2111 140.829 34.1849 140.829C35.1586 140.829 36.1185 140.598 36.9862 140.156C38.5366 139.264 38.5366 137.809 36.9862 136.903C36.1185 136.461 35.1586 136.231 34.1849 136.231C33.2111 136.231 32.2512 136.461 31.3835 136.903Z" fill="#FAFAFA"/>
<path d="M139.957 129.2H132.065L133.323 136.903C133.372 137.109 133.466 137.301 133.599 137.466C133.731 137.631 133.899 137.764 134.089 137.856C134.681 138.156 135.334 138.312 135.997 138.312C136.66 138.312 137.314 138.156 137.905 137.856C138.095 137.764 138.263 137.631 138.395 137.466C138.528 137.301 138.622 137.109 138.671 136.903L139.957 129.2Z" fill="#FAFAFA"/>
<path d="M133.198 127.37C131.652 128.266 131.652 129.716 133.198 130.622C134.067 131.062 135.028 131.291 136.002 131.291C136.976 131.291 137.936 131.062 138.805 130.622C140.351 129.725 140.351 128.276 138.805 127.37C137.936 126.93 136.976 126.701 136.002 126.701C135.028 126.701 134.067 126.93 133.198 127.37Z" fill="#FAFAFA"/>
<path d="M99.8043 105.816H91.9131L93.1757 113.524C93.2245 113.73 93.3186 113.922 93.4511 114.087C93.5836 114.252 93.7512 114.385 93.9416 114.476C94.5337 114.776 95.188 114.933 95.8517 114.933C96.5154 114.933 97.1697 114.776 97.7618 114.476C97.9526 114.386 98.1202 114.253 98.2521 114.088C98.384 113.923 98.4766 113.73 98.5231 113.524L99.8043 105.816Z" fill="#FAFAFA"/>
<path d="M93.0551 103.99C91.5047 104.887 91.5047 106.336 93.0551 107.242C93.9228 107.685 94.8828 107.915 95.8565 107.915C96.8302 107.915 97.7901 107.685 98.6579 107.242C100.208 106.35 100.208 104.919 98.6579 103.99C97.7894 103.55 96.8298 103.321 95.8565 103.321C94.8832 103.321 93.9236 103.55 93.0551 103.99Z" fill="#FAFAFA"/>
<path d="M146.26 88.695V125.497C146.26 127.932 144.533 130.919 142.431 132.132L139.311 133.939L139.256 133.967C137.773 134.692 136.114 134.978 134.475 134.789L87.6195 159.604C87.5127 161.974 85.8602 164.78 83.8317 165.974H83.7992L80.6845 167.772C80.5941 167.832 80.4976 167.882 80.3967 167.921C80.3445 167.951 80.2902 167.977 80.2343 168C80.2343 168 80.2018 168 80.1925 168C78.3047 168.783 76.2027 168.88 74.2509 168.274C74.0242 168.207 73.8025 168.125 73.5871 168.028L73.4804 167.981C73.3225 167.912 73.174 167.833 73.0162 167.754L27.925 141.763C25.813 140.546 24.1001 137.582 24.1001 135.129L24.0305 88.5371V70.8539C24.0305 68.4193 25.7527 65.4365 27.8554 64.2192L78.2986 35.1158C80.4107 33.8939 83.5811 34.0193 85.6838 35.2366L88.8032 37.0346C90.9106 38.2566 92.8973 41.2162 93.2176 43.6368L96.2209 63.3597L99.006 61.7521C100.272 61.0192 101.709 60.6333 103.172 60.6333C104.635 60.6333 106.072 61.0192 107.338 61.7521L142.431 82.0418C144.533 83.273 146.26 86.2605 146.26 88.695Z" fill="#37474F"/>
<path d="M88.8034 37.0579L85.6887 35.2552C83.572 34.0333 80.4155 33.9125 78.2988 35.1344L27.8742 64.2192C27.6514 64.3493 27.41 64.5212 27.4796 64.4655C25.6378 65.8583 24.4186 67.9216 24.0864 70.2081C24.3696 68.2521 25.9432 67.5459 27.8695 68.6423L30.9935 70.445C33.1056 71.667 36.5359 71.667 38.648 70.445L88.8034 41.481C90.9201 40.2591 90.9201 38.2798 88.8034 37.0579Z" fill="#455A64"/>
<path d="M146.26 88.6951V125.497C146.26 127.932 144.533 130.919 142.431 132.132L139.311 133.939L139.256 133.967C137.873 134.67 136.319 134.963 134.776 134.813C133.684 134.751 132.618 134.453 131.652 133.939L96.2209 113.454C94.1181 112.242 92.396 109.25 92.396 106.815V70.0176C92.396 67.5831 94.1088 64.5909 96.2209 63.3783L99.006 61.7707C100.272 61.0379 101.709 60.652 103.172 60.652C104.635 60.652 106.072 61.0379 107.338 61.7707L142.431 82.0418C144.533 83.2731 146.26 86.2605 146.26 88.6951Z" fill="#263238"/>
<path d="M99.0016 61.7707L96.2165 63.3783C94.1137 64.5956 94.1137 66.5841 96.2165 67.8014L131.657 88.2816C133.76 89.4988 135.482 92.4631 135.482 94.9163V131.723C135.482 134.158 137.204 135.152 139.312 133.935L142.431 132.132C144.534 130.915 146.256 127.95 146.256 125.497V88.6904C146.256 86.2558 144.534 83.273 142.431 82.0557L107.324 61.7707C106.06 61.0382 104.624 60.6525 103.163 60.6525C101.702 60.6525 100.266 61.0382 99.0016 61.7707Z" fill="#455A64"/>
<path d="M135.482 94.9163V131.723C135.482 134.158 137.204 135.152 139.312 133.935L142.431 132.132C144.534 130.915 146.256 127.95 146.256 125.497V88.6905C146.207 87.3579 145.821 86.0596 145.132 84.9178L134.359 91.1437C135.049 92.2845 135.436 93.5834 135.482 94.9163Z" fill="#37474F"/>
<path d="M133.89 134.813C133.525 135.577 133.057 136.287 132.497 136.922C131.685 137.851 129.953 138.832 128.895 139.445C115.434 147.227 105.723 152.816 92.2568 160.599C91.6631 160.899 91.0072 161.055 90.3421 161.055C89.6769 161.055 89.021 160.899 88.4273 160.599L75.9778 153.402L51.0742 138.999C48.9621 137.777 47.2493 134.929 47.2493 132.638C47.2493 130.348 48.9621 127.495 51.0742 126.273L65.204 118.11L75.9778 111.889L87.6846 105.138C88.8725 104.539 90.1841 104.227 91.5141 104.227C92.8442 104.227 94.1558 104.539 95.3437 105.138L130.775 125.623C132.887 126.844 134.6 129.693 134.6 131.988C134.57 132.97 134.328 133.934 133.89 134.813Z" fill="#263238"/>
<path d="M92.2521 152.301L132.683 128.968C133.741 128.359 134.595 128.856 134.595 130.078V133.953C134.56 134.618 134.369 135.265 134.036 135.841C133.704 136.418 133.24 136.907 132.683 137.27L92.2521 160.617C91.1937 161.226 90.335 160.733 90.3396 159.512V155.637C90.3729 154.969 90.5635 154.319 90.8959 153.739C91.2283 153.159 91.693 152.666 92.2521 152.301Z" fill="#37474F"/>
<path d="M87.6753 86.1722L51.0695 107.308C48.9575 108.529 47.2446 111.489 47.2446 113.942V121.697C47.2446 124.14 48.9575 127.109 51.0742 128.331L86.5102 148.811C88.6223 150.033 92.0526 150.033 94.1646 148.811L130.77 127.681C132.882 126.459 134.6 123.499 134.6 121.042V113.287C134.6 110.843 132.882 107.874 130.77 106.652L95.3344 86.1722C93.2177 84.955 89.792 84.955 87.6753 86.1722Z" fill="#37474F"/>
<path d="M90.3397 133.122V149.731C89.005 149.753 87.6869 149.433 86.5102 148.802L51.0695 128.327C48.9575 127.105 47.2446 124.145 47.2446 121.687V113.947C47.2446 111.656 48.7532 108.901 50.6796 107.558C48.9668 108.79 49.0967 110.592 51.0695 111.74L86.5102 132.22C87.6898 132.841 89.0075 133.151 90.3397 133.122Z" fill="#263238"/>
<path d="M94.1647 132.22L130.771 111.085C132.883 109.863 132.883 107.884 130.771 106.662L95.3345 86.1815C93.2178 84.9642 89.7921 84.9642 87.6754 86.1815L51.0696 107.317C48.9576 108.539 48.9576 110.518 51.0696 111.74L86.5103 132.22C88.6363 133.433 92.0527 133.433 94.1647 132.22Z" fill="#455A64"/>
<path d="M64.7582 45.3373C65.2781 44.8727 61.5089 40.5286 61.2072 40.143C59.3433 37.8165 57.8854 35.1917 56.8949 32.3793C55.9944 29.6892 55.6277 26.7574 56.2729 24.0162C56.6754 22.2462 57.5258 20.6095 58.7424 19.2632C59.3494 18.6061 60.0501 18.0425 60.8219 17.5906C61.3683 17.2758 61.9627 17.0529 62.5812 16.9309C62.5812 16.9309 63.8624 12.6285 69.1912 11.5599C71.5815 11.0674 74.0469 11.0674 76.4372 11.5599C78.1686 11.9223 79.8072 12.5774 81.4968 13.0885C83.7426 13.7241 86.0938 13.898 88.4086 13.5996C89.1234 13.5113 89.8986 13.3952 90.516 13.7575C91.3376 14.2222 91.5186 15.3512 91.4443 16.299C91.2577 17.9694 90.5078 19.5263 89.3184 20.7128C89.663 20.8685 89.954 21.1227 90.1547 21.4434C90.3555 21.7642 90.4569 22.1372 90.4463 22.5155C90.4061 23.2755 90.1447 24.007 89.6944 24.6202C88.2043 26.8922 85.8648 27.9794 83.2747 28.4579L64.7582 45.3373Z" fill="#263238"/>
<path d="M109.455 140.253C108.87 140.867 108.202 141.582 108.276 142.353C108.489 143.998 109.219 145.532 110.36 146.735C111.98 148.491 113.043 151.846 113.34 154.099C113.637 156.352 113.846 162.155 116.72 164.432C119.593 166.709 126.565 167.847 126.57 163.628C126.574 159.409 118.247 143.185 118.247 143.185L109.455 140.253Z" fill="#263238"/>
<path d="M113.317 142.967C114.481 145.913 115.421 148.943 116.13 152.031C116.84 155.418 117.843 157.802 119.565 158.712C121.287 159.623 123.868 159.46 122.898 157.16C121.928 154.861 118.256 143.185 118.256 143.185L113.317 142.967Z" fill="#F28F8F"/>
<path d="M91.0359 85.3265C91.0359 85.3265 104.739 91.6081 111.404 95.1903C118.07 98.7725 124.402 102.28 125.729 105.166C127.122 108.213 126.774 115.48 126.04 122.472C125.307 129.465 123.784 142.023 123.784 142.023L104.265 112.753L84.6533 99.79L91.0359 85.3265Z" fill="#FF6A89"/>
<path opacity="0.1" d="M116.357 116.121C114.431 111.638 110.226 108.66 106.275 106.202C103.147 104.26 95.3437 99.7251 92.2801 97.9456C92.9016 96.4122 93.2488 94.7814 93.306 93.1276C93.306 93.1276 92.3497 95.3298 91.2171 97.3091L90.4001 98.6518L110.486 113.654L124.244 138.321C124.244 138.321 118.284 120.605 116.357 116.121Z" fill="black"/>
<path d="M125.451 163.944C124.885 164.32 124.963 165.719 125.019 166.732C125.075 167.744 124.337 169.101 125.822 170.681C127.308 172.26 129.81 172.4 131.857 174.556C133.904 176.711 136.991 180.689 142.565 180.977C148.14 181.265 151.961 178.83 152.713 177.06C153.465 175.29 152.318 173.919 148.558 172.493C144.566 170.983 143.429 170.532 143.429 170.532L125.451 163.944Z" fill="#263238"/>
<path d="M129.485 151.929C129.485 151.929 133.24 158.726 135.347 161.784C137.455 164.841 140.453 167.577 143.703 170.063C144.408 170.602 145.959 171.559 146.534 171.996C146.666 172.077 146.779 172.186 146.864 172.316C146.949 172.446 147.004 172.593 147.025 172.747C147.047 172.901 147.034 173.057 146.987 173.205C146.941 173.353 146.862 173.489 146.757 173.603C145.829 174.96 140.95 176.242 137.756 174.742C134.563 173.241 131.03 169.854 129.02 168.534C128.022 167.87 127.085 167.233 126.393 166.764C126.068 166.542 125.806 166.24 125.632 165.886C125.458 165.533 125.378 165.141 125.4 164.748C125.4 164.52 125.423 164.255 125.432 163.944C125.483 162.271 122.03 156.166 122.03 156.166L129.485 151.929Z" fill="#FFA8A7"/>
<path d="M59.188 93.1461C60.2695 99.0235 61.1747 101.449 64.4101 106.578C67.548 111.54 74.0141 115.164 82.4298 117.994C89.3926 120.317 99.6372 123.676 101.661 124.113C103.685 124.549 104.117 125.641 104.585 129.223C105.054 132.806 107.477 138.376 112.918 144.83C116.864 149.625 120.552 154.629 123.965 159.818C123.965 159.818 129.647 159.818 131.824 156.027C131.824 156.027 116.004 118.677 113.47 114.37C110.936 110.063 90.4185 98.6704 90.4185 98.6704C90.4185 98.6704 90.762 90.9392 91.0359 85.3081L59.188 93.1461Z" fill="#FF6A89"/>
<path d="M89.806 52.8688C92.7628 57.2129 100.375 70.0595 100.375 70.0595L107.436 59.6661L114.227 58.932C114.227 58.932 108.132 77.4329 103.49 81.8281C101.22 83.9886 98.6209 82.683 97.2654 81.5261C95.91 80.3692 94.8517 79.1659 92.2383 76.0669C87.8935 70.9143 86.7795 69.1349 86.7795 69.1349L79.1064 47.7627C82.0494 47.7673 85.9671 47.2237 89.806 52.8688Z" fill="#FFA8A7"/>
<path d="M100.375 70.0547C99.0049 71.3561 97.9354 72.9419 97.2422 74.7009C97.2654 73.6346 97.5016 72.5837 97.9368 71.6102C98.3721 70.6367 98.9977 69.7603 99.7767 69.0326L100.375 70.0547Z" fill="#F28F8F"/>
<path d="M114.909 46.0435L114.19 45.4395C114.083 45.3686 113.96 45.3249 113.832 45.3119C113.704 45.299 113.575 45.3172 113.456 45.3651L105.811 47.5488C105.424 47.681 105.07 47.8956 104.773 48.178C104.477 48.4603 104.245 48.8036 104.094 49.1842L98.7091 65.2552C98.6434 65.3861 98.6189 65.5339 98.6388 65.6791C98.6587 65.8242 98.722 65.9599 98.8205 66.0683L99.5632 66.6909C99.6703 66.7636 99.7934 66.8093 99.922 66.8238C100.051 66.8384 100.181 66.8215 100.301 66.7745L107.988 64.6001C108.375 64.466 108.728 64.2501 109.023 63.9671C109.319 63.6841 109.55 63.3406 109.701 62.96C110.759 59.8053 114.032 50.0484 115.086 46.8937C115.188 46.4895 115.118 46.1968 114.909 46.0435Z" fill="#FF6A89"/>
<path opacity="0.3" d="M114.909 46.0435L114.19 45.4395C114.083 45.3686 113.96 45.3249 113.832 45.3119C113.704 45.299 113.575 45.3172 113.456 45.3651L105.811 47.5488C105.424 47.681 105.07 47.8956 104.773 48.178C104.477 48.4603 104.245 48.8036 104.094 49.1842L98.7091 65.2552C98.6434 65.3861 98.6189 65.5339 98.6388 65.6791C98.6587 65.8242 98.722 65.9599 98.8205 66.0683L99.5632 66.6909C99.6703 66.7636 99.7934 66.8093 99.922 66.8238C100.051 66.8384 100.181 66.8215 100.301 66.7745L107.988 64.6001C108.375 64.466 108.728 64.2501 109.023 63.9671C109.319 63.6841 109.55 63.3406 109.701 62.96C110.759 59.8053 114.032 50.0484 115.086 46.8937C115.188 46.4895 115.118 46.1968 114.909 46.0435Z" fill="black"/>
<path d="M99.4052 65.8594L104.79 49.7931C104.941 49.4124 105.173 49.0691 105.469 48.7868C105.766 48.5044 106.12 48.2898 106.507 48.1576L114.19 45.9832C114.904 45.7788 115.29 46.183 115.053 46.9125C113.999 50.0672 110.727 59.8241 109.668 62.9788C109.517 63.3593 109.286 63.7028 108.991 63.9859C108.695 64.2689 108.342 64.4848 107.956 64.6189L100.269 66.7933C99.5584 66.9698 99.1685 66.5656 99.4052 65.8594Z" fill="#FF6A89"/>
<path opacity="0.5" d="M99.4052 65.8594L104.79 49.7931C104.941 49.4124 105.173 49.0691 105.469 48.7868C105.766 48.5044 106.12 48.2898 106.507 48.1576L114.19 45.9832C114.904 45.7788 115.29 46.183 115.053 46.9125C113.999 50.0672 110.727 59.8241 109.668 62.9788C109.517 63.3593 109.286 63.7028 108.991 63.9859C108.695 64.2689 108.342 64.4848 107.956 64.6189L100.269 66.7933C99.5584 66.9698 99.1685 66.5656 99.4052 65.8594Z" fill="black"/>
<path d="M105.672 48.5897C105.277 48.8981 104.972 49.3074 104.79 49.7745L99.4006 65.8408C99.3383 65.9688 99.3136 66.1117 99.3292 66.2532C99.3448 66.3946 99.4002 66.5287 99.4888 66.64L98.7925 66.0592C98.6937 65.9501 98.6301 65.8136 98.6102 65.6676C98.5903 65.5217 98.615 65.3731 98.6811 65.2415L104.066 49.1705C104.237 48.7329 104.518 48.3472 104.883 48.0508L105.672 48.5897Z" fill="#FF6A89"/>
<path opacity="0.4" d="M105.672 48.5897C105.277 48.8981 104.972 49.3074 104.79 49.7745L99.4006 65.8408C99.3383 65.9688 99.3136 66.1117 99.3292 66.2532C99.3448 66.3946 99.4002 66.5287 99.4888 66.64L98.7925 66.0592C98.6937 65.9501 98.6301 65.8136 98.6102 65.6676C98.5903 65.5217 98.615 65.3731 98.6811 65.2415L104.066 49.1705C104.237 48.7329 104.518 48.3472 104.883 48.0508L105.672 48.5897Z" fill="black"/>
<path d="M112.834 61.5988C115.67 57.5288 115.081 52.8826 113.447 51.6979L112.69 53.9559C112.69 53.9559 107.854 55.5913 105.454 55.6703C103.054 55.7493 101.039 55.3869 100.436 55.9166C99.1593 57.0409 99.2103 61.241 103.332 62.3236C106.842 63.2296 112.834 61.5988 112.834 61.5988Z" fill="#FFA8A7"/>
<path d="M58.1158 50.476C60.9901 54.6111 62.2683 59.6494 61.7132 64.656C61.0541 70.617 59.0674 71.5556 56.0455 73.2375C55.5303 85.4568 60.7941 99.8227 60.7941 99.8227C60.7941 99.8227 69.6137 102.383 82.1467 97.5368C93.5704 93.1183 94.457 86.6462 94.457 86.6462L88.7893 80.0998L87.457 71.6438C87.457 71.6438 91.6347 65.2136 89.4855 59.8705C87.4442 54.8054 83.7955 50.5526 79.1017 47.7673H75.6899L64.7583 49.0543L58.1158 50.476Z" fill="#FAFAFA"/>
<path d="M83.623 20.1785C85.2616 22.0741 86.9559 23.9697 86.4081 33.7034C85.9439 41.9549 83.5952 44.0364 82.2305 44.5846C80.8657 45.1329 78.2942 44.6868 75.7875 44.1897V47.7905C76.7159 48.4734 79.891 50.7919 79.3014 52.5249C78.5727 54.6621 73.5641 54.9176 70.0595 53.3658C66.0164 51.5678 64.8513 48.8962 64.8513 48.8962V37.8106C64.8513 37.8106 62.665 39.0093 60.7432 36.7931C58.9376 34.7116 58.4223 31.9193 60.098 30.3256C60.5425 29.9184 61.0857 29.6347 61.6736 29.5027C62.2616 29.3707 62.8738 29.3949 63.4495 29.573C63.9394 29.764 64.3679 30.0853 64.6888 30.5022C65.0716 31.0014 65.4102 31.5331 65.7008 32.0912C65.8911 32.4257 66.2717 33.0204 66.722 33.0204C67.1722 33.0204 67.4229 32.3792 67.5714 32.0447C68.2047 30.658 69.1596 29.4427 70.3565 28.4997C71.6006 27.5147 72.9281 27.078 74.4182 26.6412C76.4049 26.0512 78.452 25.3868 80.1602 24.1788C80.846 23.6915 81.4695 23.122 82.0169 22.483C82.5993 21.7487 83.1357 20.9791 83.623 20.1785Z" fill="#FFA8A7"/>
<path d="M88.302 29.1687C88.4702 29.0422 88.6805 28.985 88.8895 29.009C89.0986 29.0331 89.2905 29.1365 89.4256 29.298C89.5607 29.4594 89.6288 29.6666 89.6158 29.8769C89.6028 30.0871 89.5097 30.2843 89.3557 30.4278C89.0076 30.7205 87.6057 30.8228 87.6057 30.8228C87.6057 30.8228 87.9539 29.4614 88.302 29.1687Z" fill="#FF6A89"/>
<path d="M89.2627 31.7659C89.4652 31.8473 89.6272 32.0058 89.7129 32.2066C89.7987 32.4075 89.8012 32.6342 89.7199 32.8369C89.6387 33.0396 89.4803 33.2017 89.2797 33.2875C89.079 33.3733 88.8525 33.3759 88.65 33.2945C88.2276 33.1226 87.4802 31.9332 87.4802 31.9332C87.4802 31.9332 88.8403 31.5987 89.2627 31.7659Z" fill="#FF6A89"/>
<path d="M75.806 44.1898C71.7954 43.033 69.1449 42.415 67.8499 39.5437C67.9512 40.7901 68.4984 41.9581 69.391 42.8332C71.7815 44.9472 75.806 45.5465 75.806 45.5465V44.1898Z" fill="#F28F8F"/>
<path d="M77.853 32.2353C77.8395 32.2725 77.8153 32.3049 77.7834 32.3283C77.7091 32.3794 77.607 32.3654 77.5234 32.398C77.3517 32.4723 77.3331 32.7139 77.1846 32.8207C77.036 32.9276 76.6693 32.7789 76.4326 32.8812C76.3398 32.923 76.2655 33.0159 76.168 33.0531C75.9916 33.1274 75.8106 33.0159 75.6295 33.0531C75.4485 33.0902 75.3418 33.2528 75.2443 33.3504C74.1045 34.5383 73.3532 36.0455 73.0904 37.6713C72.8821 38.772 72.8633 39.9002 73.0347 41.0072C73.1442 41.68 73.3754 42.3272 73.7171 42.9168C73.8387 43.1097 73.9769 43.2917 74.1302 43.4604C74.1982 43.5467 74.2761 43.6247 74.3623 43.6927C74.4677 43.7648 74.5643 43.849 74.6501 43.9436C74.7521 44.0583 74.8054 44.2083 74.7987 44.3617C74.7928 44.4385 74.7626 44.5115 74.7125 44.57C74.6625 44.6284 74.5951 44.6694 74.5201 44.687C74.4087 44.687 74.2741 44.687 74.2463 44.5615C74.2371 44.489 74.2371 44.4157 74.2463 44.3432C74.2506 44.1794 74.207 44.0179 74.1209 43.8786C73.9947 43.6994 73.8551 43.5301 73.7032 43.3721C73.5503 43.2064 73.4164 43.024 73.304 42.8285C73.1421 42.5326 73.01 42.2213 72.9094 41.8993C72.9094 41.8621 72.9094 41.8203 72.8769 41.7785C72.6296 40.9453 72.5167 40.078 72.5427 39.2092C72.5917 37.3067 73.1899 35.4591 74.2648 33.8894C74.5266 33.5034 74.8496 33.1629 75.2211 32.8812C75.1789 32.8871 75.1359 32.884 75.095 32.872C75.054 32.8601 75.0161 32.8397 74.9836 32.812C74.9512 32.7844 74.9249 32.7501 74.9067 32.7116C74.8884 32.6731 74.8785 32.6311 74.8776 32.5884C74.8834 32.5231 74.903 32.4598 74.935 32.4026C74.967 32.3454 75.0108 32.2957 75.0634 32.2566C75.116 32.2175 75.1763 32.1901 75.2403 32.176C75.3042 32.1619 75.3705 32.1616 75.4346 32.1749C75.5646 32.2028 75.6853 32.2679 75.8199 32.2864C75.9779 32.2998 76.1369 32.2759 76.2841 32.2168C76.5115 32.1285 76.7157 31.9891 76.9432 31.8962C77.0559 31.8468 77.1776 31.8213 77.3006 31.8213C77.4237 31.8213 77.5454 31.8468 77.6581 31.8962C77.7391 31.9362 77.8032 32.0037 77.8391 32.0867C77.8576 32.1339 77.8625 32.1855 77.853 32.2353Z" fill="#E6E6E6"/>
<path d="M83.3352 31.399C83.2046 31.3898 83.0735 31.4072 82.9499 31.4501C82.8877 31.4708 82.8303 31.5037 82.7809 31.5468C82.7315 31.5898 82.6912 31.6422 82.6621 31.701C82.6406 31.7383 82.6278 31.7799 82.6246 31.8228C82.6214 31.8658 82.6278 31.9089 82.6433 31.949C82.6589 31.9891 82.6833 32.0252 82.7147 32.0546C82.746 32.0841 82.7836 32.1061 82.8245 32.1191C82.9035 32.1191 83.0056 32.1191 83.0613 32.2028C83.117 32.2864 83.0891 32.3282 83.1077 32.3933C83.1257 32.4395 83.1552 32.4804 83.1934 32.5121C83.2315 32.5438 83.2771 32.5652 83.3259 32.5745C83.426 32.5891 83.5283 32.5779 83.6229 32.5419C83.7182 32.4962 83.824 32.4769 83.9293 32.4862C84.0546 32.514 84.1428 32.6348 84.2635 32.686C84.3234 32.7108 84.3892 32.7174 84.4527 32.705C84.5163 32.6926 84.5748 32.6617 84.621 32.6163C84.6544 32.5742 84.6917 32.5353 84.7324 32.5001C84.8577 32.4118 85.0526 32.5001 85.1733 32.3886C85.294 32.2771 85.229 32.1052 85.1733 31.9937C85.0826 31.8664 84.9613 31.7642 84.8205 31.6963C84.7057 31.6421 84.586 31.5985 84.4631 31.5662C84.3517 31.5337 84.245 31.5244 84.1336 31.4965C83.8722 31.4327 83.6042 31.3999 83.3352 31.399Z" fill="#E6E6E6"/>
<path d="M77.2869 31.3711C77.4865 31.9332 77.0734 32.1981 76.5349 32.3886C75.9965 32.579 75.5276 32.6162 75.328 32.054C75.2716 31.9228 75.2428 31.7813 75.2434 31.6384C75.244 31.4955 75.274 31.3543 75.3315 31.2235C75.3891 31.0927 75.4729 30.9752 75.5777 30.8782C75.6826 30.7813 75.8063 30.707 75.9411 30.66C76.076 30.613 76.219 30.5943 76.3614 30.605C76.5037 30.6157 76.6423 30.6557 76.7686 30.7224C76.8949 30.7891 77.006 30.8812 77.0952 30.9927C77.1844 31.1043 77.2496 31.2331 77.2869 31.3711Z" fill="#263238"/>
<path d="M84.9226 31.6545C84.7508 32.2259 84.2588 32.1981 83.7111 32.0308C83.1633 31.8635 82.7827 31.6219 82.9405 31.0505C83.0205 30.7874 83.2017 30.5669 83.4441 30.4375C83.6866 30.3081 83.9704 30.2804 84.2333 30.3605C84.4961 30.4406 84.7164 30.6219 84.8457 30.8646C84.9749 31.1072 85.0026 31.3914 84.9226 31.6545Z" fill="#263238"/>
<path d="M83.2329 27.2639L85.3404 28.7135C85.2548 28.8458 85.1418 28.9581 85.009 29.0427C84.8762 29.1274 84.7268 29.1824 84.5708 29.204C84.4149 29.2256 84.2561 29.2133 84.1054 29.1679C83.9546 29.1226 83.8153 29.0452 83.6971 28.9412C83.5548 28.8633 83.4296 28.7577 83.3289 28.6305C83.2281 28.5033 83.1539 28.3572 83.1106 28.2008C83.0673 28.0444 83.0559 27.8809 83.0769 27.7199C83.0979 27.559 83.151 27.4039 83.2329 27.2639Z" fill="#263238"/>
<path d="M74.3391 28.9365L76.4187 27.4497C76.5134 27.5786 76.5797 27.7262 76.6131 27.8827C76.6465 28.0392 76.6463 28.201 76.6125 28.3574C76.5787 28.5138 76.5121 28.6612 76.4171 28.7899C76.322 28.9186 76.2007 29.0255 76.0612 29.1037C75.9384 29.2087 75.7957 29.2877 75.6417 29.3363C75.4876 29.3848 75.3254 29.4017 75.1647 29.3861C75.004 29.3705 74.848 29.3226 74.7062 29.2454C74.5643 29.1681 74.4395 29.0631 74.3391 28.9365Z" fill="#263238"/>
<path d="M79.603 30.4697L80.0719 36.7234L83.2747 35.9522L79.603 30.4697Z" fill="#F28F8F"/>
<path d="M78.5261 37.9034C77.3656 37.7176 76.0705 38.5028 76.1494 39.1811C76.2098 39.6736 76.6693 39.8316 77.3192 39.7758C77.9072 39.6866 78.5073 39.8226 78.9995 40.1568C79.1128 40.2368 79.2464 40.2828 79.3848 40.2894C79.5232 40.2961 79.6607 40.2631 79.781 40.1943C79.9013 40.1255 79.9996 40.0239 80.0643 39.9012C80.1289 39.7785 80.1573 39.6399 80.1461 39.5017C80.1153 39.0841 79.9341 38.6918 79.6361 38.3979C79.3382 38.1039 78.9437 37.9282 78.5261 37.9034Z" fill="#B16668"/>
<path d="M76.9107 38.6422C76.6655 38.6437 76.4257 38.7146 76.219 38.8466C76.163 38.9504 76.1388 39.0684 76.1494 39.1858C76.2098 39.6783 76.6693 39.8363 77.3192 39.7805C77.6082 39.7458 77.9009 39.7552 78.1872 39.8084C78.1572 39.49 78.0099 39.1942 77.7739 38.9786C77.5379 38.763 77.2302 38.6431 76.9107 38.6422Z" fill="#F28F8F"/>
<path d="M58.1158 50.476C54.0263 51.2147 49.8115 55.3358 50.5356 62.8114C51.2597 70.2871 57.452 88.2305 58.6496 90.6279C60.5667 94.4656 63.0408 96.8676 65.5335 97.3741C66.2655 97.4975 67.0151 97.4666 67.7345 97.2834C68.4539 97.1002 69.1271 96.7687 69.7112 96.3101C74.7801 92.6257 79.9883 81.9396 81.9146 77.5258C83.2004 74.5755 84.0406 72.2292 84.4862 69.5298C84.8808 67.1509 84.9504 64.3261 83.3118 62.3979C82.5413 61.5012 81.9518 60.2886 80.6521 60.0749C80.1461 59.9866 80.0254 60.0424 79.6448 59.6474C79.2641 59.2525 78.8324 58.7972 78.4286 58.3744C78.1269 58.0631 77.737 57.7239 77.3192 57.8308C77.1813 57.8762 77.0576 57.9565 76.96 58.064C76.8623 58.1715 76.7942 58.3024 76.7622 58.4441C76.7002 58.7264 76.6892 59.0175 76.7297 59.3036C76.8867 60.9496 76.9534 62.6031 76.9293 64.2564C76.9465 65.3022 76.7407 66.3397 76.3258 67.2996C76.2926 67.3934 76.2404 67.4794 76.1725 67.5521C76.1046 67.6249 76.0225 67.6828 75.9313 67.7224C75.8616 67.7373 75.7895 67.7371 75.7198 67.7219C75.6502 67.7067 75.5846 67.6767 75.5274 67.6341C75.4143 67.5449 75.3197 67.4344 75.2489 67.3089C74.924 66.77 74.664 66.1892 74.3577 65.6363C74.001 64.9445 73.451 64.3715 72.7748 63.9869C72.5312 63.8442 72.254 63.7688 71.9718 63.7686C71.8298 63.7727 71.6916 63.8155 71.5722 63.8925C71.4527 63.9695 71.3566 64.0776 71.294 64.2053C71.2564 64.3905 71.2576 64.5816 71.2976 64.7663C71.3375 64.951 71.4154 65.1255 71.5261 65.2785C72.357 66.9744 72.3106 68.9165 72.7377 70.7238C72.9326 71.5462 73.2715 72.4475 73.5175 73.2513C73.8331 74.2921 73.2483 75.9089 72.6634 76.9218C71.3978 79.1396 69.817 81.1617 67.9705 82.9246L63.9228 68.6052C63.9228 68.6052 65.1853 61.1481 62.2795 55.5495C60.3624 51.8419 58.1158 50.476 58.1158 50.476Z" fill="#FFA8A7"/>
<path d="M67.9659 82.9107C65.5336 84.0908 63.4911 86.4138 63.1059 87.738C63.1059 87.738 62.7392 83.6169 67.5156 81.3031L67.9659 82.9107Z" fill="#F28F8F"/>
<path d="M76.855 165.579V128.773C76.855 126.343 75.1329 123.355 73.0301 122.138L37.5476 101.639C37.1639 101.418 36.8452 101.099 36.6236 100.716C36.402 100.332 36.2854 99.8964 36.2854 99.4532C36.2854 99.0099 36.402 98.5745 36.6236 98.1908C36.8452 97.807 37.1639 97.4885 37.5476 97.2672L38.411 96.77L35.4031 77.0426C35.0828 74.6312 33.0822 71.6623 30.9933 70.445L27.874 68.6423C25.7712 67.425 24.0444 68.424 24.0444 70.8539V88.5743L24.1141 135.166C24.1141 137.6 25.8362 140.583 27.939 141.8L73.0347 167.791C75.1329 169.008 76.855 167.995 76.855 165.579Z" fill="#263238"/>
<path d="M87.629 122.547V159.358C87.6336 159.44 87.6336 159.522 87.629 159.604C87.5222 161.974 85.8697 164.78 83.8412 165.974H83.8087L80.694 167.772C80.6035 167.832 80.5071 167.882 80.4062 167.921C80.3539 167.951 80.2996 167.977 80.2437 168C80.2437 168 80.2112 168 80.202 168C80.0952 168.042 79.9884 168.088 79.891 168.116C78.081 168.779 76.1046 168.834 74.2604 168.274C74.0337 168.207 73.8119 168.125 73.5966 168.028C75.4533 168.785 76.8459 167.754 76.8459 165.547V128.777C76.8459 126.343 75.1191 123.351 73.0163 122.138L66.0535 118.124L37.5153 101.635C37.1327 101.413 36.815 101.095 36.5942 100.711C36.3733 100.328 36.2571 99.8933 36.2571 99.4509C36.2571 99.0084 36.3733 98.5738 36.5942 98.1905C36.815 97.8072 37.1327 97.4888 37.5153 97.2672L40.6811 95.4087C42.7885 94.1961 46.2513 94.1961 48.3402 95.4087L76.832 111.879L83.7948 115.884C85.9115 117.129 87.629 120.112 87.629 122.547Z" fill="#455A64"/>
<path d="M76.8597 128.777V165.584C76.8597 167.791 75.4253 168.836 73.6104 168.065C73.8257 168.162 74.0475 168.245 74.2741 168.311C76.1184 168.872 78.0947 168.816 79.9047 168.153C80.0022 168.125 80.109 168.079 80.2157 168.037C80.2157 168.037 80.2436 168.037 80.2575 168.037C80.3134 168.015 80.3677 167.988 80.42 167.958C80.5209 167.919 80.6173 167.869 80.7078 167.809L83.8225 166.011H83.855C85.8835 164.817 87.536 162.011 87.6427 159.642C87.6473 159.56 87.6473 159.477 87.6427 159.395V122.547C87.5942 121.214 87.2076 119.916 86.5194 118.774L75.7456 125C76.4325 126.143 76.816 127.444 76.8597 128.777Z" fill="#37474F"/>
<path d="M27.9577 156.636C33.138 151.344 36.1831 129.818 31.1281 125.623H5.42606C0.375701 129.804 3.41148 151.334 8.58717 156.631L8.73107 156.775L8.90746 156.951C9.056 157.091 9.20918 157.23 9.37164 157.365L9.49698 157.463C9.62231 157.565 9.74763 157.662 9.88689 157.76C10.1022 157.914 10.3253 158.057 10.5553 158.187C14.8166 160.65 21.7237 160.65 25.9849 158.187C26.2187 158.056 26.4449 157.912 26.6626 157.755C26.7879 157.667 26.904 157.574 27.0247 157.481L27.1779 157.36C27.3403 157.23 27.4889 157.095 27.642 156.961L27.8509 156.756L27.9577 156.636Z" fill="#FF6A89"/>
<g opacity="0.5">
<path opacity="0.5" d="M27.9577 156.636C33.138 151.344 36.1831 129.818 31.1281 125.623H5.42606C0.375701 129.804 3.41148 151.334 8.58717 156.631L8.73107 156.775L8.90746 156.951C9.056 157.091 9.20918 157.23 9.37164 157.365L9.49698 157.463C9.62231 157.565 9.74763 157.662 9.88689 157.76C10.1022 157.914 10.3253 158.057 10.5553 158.187C14.8166 160.65 21.7237 160.65 25.9849 158.187C26.2187 158.056 26.4449 157.912 26.6626 157.755C26.7879 157.667 26.904 157.574 27.0247 157.481L27.1779 157.36C27.3403 157.23 27.4889 157.095 27.642 156.961L27.8509 156.756L27.9577 156.636Z" fill="white"/>
</g>
<path d="M7.65409 123.931C1.79141 127.318 1.79141 132.815 7.65409 136.206C13.5168 139.598 23.028 139.593 28.8906 136.206C34.7533 132.819 34.758 127.318 28.8906 123.931C23.0233 120.544 13.5214 120.54 7.65409 123.931Z" fill="#FF6A89"/>
<g opacity="0.7">
<path opacity="0.7" d="M7.65409 123.931C1.79141 127.318 1.79141 132.815 7.65409 136.206C13.5168 139.598 23.028 139.593 28.8906 136.206C34.7533 132.819 34.758 127.318 28.8906 123.931C23.0233 120.544 13.5214 120.54 7.65409 123.931Z" fill="white"/>
</g>
<path d="M10.4763 125.562C6.16869 128.048 6.16869 132.067 10.4763 134.576C14.784 137.085 21.77 137.061 26.073 134.576C30.376 132.09 30.3807 128.048 26.073 125.562C21.7654 123.077 14.784 123.072 10.4763 125.562Z" fill="#FF6A89"/>
<path d="M26.0731 129.837C21.7654 127.351 14.784 127.351 10.4764 129.837C9.43368 130.401 8.54694 131.215 7.89551 132.206C8.54694 133.197 9.43368 134.011 10.4764 134.576C14.784 137.061 21.7654 137.061 26.0731 134.576C27.1167 134.013 28.0037 133.198 28.6539 132.206C28.0037 131.214 27.1167 130.4 26.0731 129.837Z" fill="#455A64"/>
<path d="M18.6135 131.672C15.6134 132.121 12.548 131.773 9.72433 130.664C4.81323 128.805 4.04732 125.525 4.04732 125.525C4.04732 125.525 8.225 122.305 11.4743 122.575C11.4743 122.575 6.63284 120.991 1.82851 121.334C1.82851 121.334 -0.956615 119.81 0.34775 114.983C0.34775 114.983 3.41603 113.38 9.65934 115.127C9.65934 115.127 6.80923 112.395 1.30398 110.89C0.839789 110.829 2.41803 104.525 3.37889 101.751C4.33976 98.9772 5.32848 99.5811 7.57978 100.171C9.83109 100.761 16.6871 104.218 17.2766 105.988C17.8662 107.758 16.4179 111.777 16.4179 111.777C16.4179 111.777 18.7713 110.383 19.5465 108.344C21.1383 108.738 22.5706 109.612 23.6499 110.848C25.4092 112.86 24.6619 113.854 23.7567 115.448C22.8485 117.053 21.7187 118.521 20.4006 119.81C20.4006 119.81 22.6612 119.346 25.4603 114.556C25.4603 114.556 26.9828 118.784 26.9317 121.641C26.8807 124.498 23.3204 130.041 18.6135 131.672Z" fill="#FF6A89"/>
<path opacity="0.2" d="M18.6135 131.672C15.6134 132.121 12.548 131.773 9.72433 130.664C4.81323 128.805 4.04732 125.525 4.04732 125.525C4.04732 125.525 8.225 122.305 11.4743 122.575C11.4743 122.575 6.63284 120.991 1.82851 121.334C1.82851 121.334 -0.956615 119.81 0.34775 114.983C0.34775 114.983 3.41603 113.38 9.65934 115.127C9.65934 115.127 6.80923 112.395 1.30398 110.89C0.839789 110.829 2.41803 104.525 3.37889 101.751C4.33976 98.9772 5.32848 99.5811 7.57978 100.171C9.83109 100.761 16.6871 104.218 17.2766 105.988C17.8662 107.758 16.4179 111.777 16.4179 111.777C16.4179 111.777 18.7713 110.383 19.5465 108.344C21.1383 108.738 22.5706 109.612 23.6499 110.848C25.4092 112.86 24.6619 113.854 23.7567 115.448C22.8485 117.053 21.7187 118.521 20.4006 119.81C20.4006 119.81 22.6612 119.346 25.4603 114.556C25.4603 114.556 26.9828 118.784 26.9317 121.641C26.8807 124.498 23.3204 130.041 18.6135 131.672Z" fill="black"/>
<path d="M18.4651 131.923C18.4175 131.895 18.3787 131.855 18.3532 131.807C18.3277 131.758 18.3166 131.703 18.3212 131.649C18.9803 122.022 10.4578 105.537 6.15019 101.839C6.0994 101.786 6.07007 101.717 6.06799 101.644C6.06591 101.571 6.09122 101.499 6.13893 101.444C6.18665 101.389 6.25333 101.353 6.32585 101.345C6.39838 101.336 6.47149 101.355 6.53083 101.398C10.9081 105.156 19.5745 121.906 18.9014 131.69C18.8997 131.729 18.8902 131.767 18.8734 131.801C18.8566 131.836 18.833 131.867 18.8039 131.892C18.7747 131.917 18.7408 131.936 18.7041 131.948C18.6674 131.96 18.6287 131.964 18.5904 131.96C18.5459 131.96 18.5024 131.947 18.4651 131.923Z" fill="white"/>
<path d="M17.7314 133.725C18.6743 134.611 19.8067 135.269 21.0423 135.65C22.2779 136.031 23.584 136.125 24.8613 135.924C26.1385 135.723 27.3532 135.234 28.4126 134.492C29.472 133.75 30.3483 132.776 30.9747 131.644C31.2031 131.311 31.3067 130.908 31.2671 130.506C31.1513 130.116 30.9055 129.778 30.5709 129.549C28.9983 128.228 27.1059 127.345 25.0842 126.989C26.1657 127.174 27.4933 126.826 28.5888 126.821C30.1702 126.799 31.749 126.955 33.2956 127.286C33.2956 127.286 35.8904 126.329 35.3984 121.994C35.3984 121.994 32.9568 120.21 27.3401 120.911C27.3401 120.911 30.1531 118.918 35.092 118.333C35.4773 118.333 34.9528 112.688 34.4839 110.169C34.0151 107.651 33.0914 108.042 31.0582 108.26C29.0251 108.478 22.7029 110.583 21.9323 112.023C21.1618 113.464 21.9323 117.134 21.9323 117.134C21.9323 117.134 20.0756 115.61 19.681 113.766C18.2618 113.895 16.9152 114.452 15.819 115.364C14.0411 116.874 14.5564 117.826 15.1366 119.322C15.7064 120.833 16.4879 122.255 17.4576 123.546C17.1848 123.298 16.8877 123.079 16.571 122.891C16.0789 122.51 15.5405 122.208 15.0716 121.785C14.1699 120.963 13.4368 119.974 12.9132 118.872C11.8223 120.593 11.0561 122.5 10.6526 124.498C10.2623 126.504 10.5997 128.583 11.6042 130.362C12.7925 132.299 15.2341 133.823 17.5597 133.544L17.7314 133.725Z" fill="#FF6A89"/>
<path d="M17.5413 134.264C17.5855 134.247 17.6241 134.218 17.6528 134.18C17.6815 134.143 17.6991 134.098 17.7037 134.051C18.3814 125.646 27.8787 112.52 32.0935 109.891C32.1221 109.873 32.147 109.851 32.1667 109.824C32.1865 109.797 32.2006 109.766 32.2084 109.734C32.2162 109.702 32.2174 109.668 32.2121 109.635C32.2067 109.602 32.1948 109.57 32.1771 109.542C32.1407 109.485 32.0835 109.444 32.0177 109.429C31.9518 109.413 31.8824 109.424 31.8243 109.459C27.5584 112.139 17.8987 125.478 17.2163 134.013C17.2112 134.08 17.2327 134.147 17.2761 134.198C17.3196 134.249 17.3815 134.282 17.4484 134.287C17.4807 134.286 17.5123 134.279 17.5413 134.264Z" fill="white"/>
<path d="M151.385 4.35842L151.343 4.30732C150.107 2.93922 148.596 1.84824 146.908 1.10597C145.221 0.3637 143.396 -0.0130843 141.553 0.000346852C136.568 0.0282237 132.27 4.15399 130.088 8.93022C129.181 10.9742 128.113 12.9426 126.894 14.8169L124.188 18.8962L133.518 25.359L126.323 31.2038L130.069 37.9035L124.207 31.4361L128.199 25.3125L120.201 19.7836L126.235 7.095C123.831 3.19224 119.978 0.125794 115.661 0.172255C113.82 0.184126 112.003 0.585118 110.328 1.34896C108.653 2.11281 107.158 3.22228 105.941 4.60467L105.899 4.65578C103.786 7.05378 102.629 10.1467 102.65 13.3441C102.715 23.6724 112.319 29.3128 120.387 36.0311L128.682 42.1826L137.288 35.915C145.267 29.0759 154.801 23.3286 154.732 13.0002C154.714 9.80607 153.523 6.73009 151.385 4.35842Z" fill="#FF6A89"/>
<path d="M109.947 26.6367C109.947 26.6367 110.3 31.7475 104.553 33.7314C104.553 33.7314 109.989 36.519 115.229 31.0924L109.947 26.6367Z" fill="#FF6A89"/>
</svg>
