<svg width="206" height="182" viewBox="0 0 206 182" fill="none" xmlns="http://www.w3.org/2000/svg">
<path d="M103.097 169.673L81.6216 156.629C66.2681 147.155 51.8743 136.21 38.644 123.949C16.8377 103.542 0 81.618 0 51.0345C0.0334445 38.4116 4.70955 26.2413 13.1389 16.8384L13.3045 16.6454C17.6487 11.5304 23.041 7.40634 29.1171 4.55183C35.1933 1.69732 41.8119 0.178821 48.5258 0.0989127C69.3936 -1.00419 90.0957 6.99328 102.986 30.4341C115.877 7.10359 136.579 -0.893877 157.474 0.0989127C164.183 0.182751 170.797 1.70314 176.868 4.55751C182.939 7.41188 188.327 11.5339 192.668 16.6454L192.833 16.8384C201.271 26.2386 205.956 38.4085 206 51.0345C206 81.618 189.245 103.432 167.356 123.949C154.116 136.211 139.713 147.155 124.351 156.629L103.097 169.673Z" fill="#FF6A89"/>
<path d="M9.3299 88.0159H57.4417L73.1753 39.8932C73.3949 39.2236 73.8195 38.6398 74.389 38.2242C74.9585 37.8086 75.6443 37.5821 76.3496 37.5767C77.0481 37.5782 77.7289 37.7966 78.2976 38.2018C78.8664 38.6069 79.2949 39.1787 79.5239 39.838L104.367 110.436L126.145 57.4601C126.392 56.8533 126.811 56.3319 127.35 55.9596C127.89 55.5873 128.526 55.3803 129.181 55.3642C129.837 55.3791 130.476 55.5717 131.03 55.9214C131.584 56.2712 132.033 56.7649 132.328 57.3498L145.274 86.0303H197.968C196.836 88.3193 195.594 90.553 194.241 92.7592H143.038C142.39 92.7612 141.755 92.5745 141.21 92.2219C140.666 91.8693 140.237 91.3661 139.974 90.7736L129.319 67.2225L107.237 121.164C106.987 121.779 106.559 122.307 106.009 122.68C105.459 123.053 104.811 123.255 104.146 123.26C103.462 123.238 102.802 123.01 102.25 122.607C101.699 122.203 101.282 121.643 101.054 120.999L76.6256 51.4206L63.2107 92.4007C62.9985 93.0749 62.5758 93.6634 62.0046 94.0803C61.4334 94.4971 60.7437 94.7203 60.0363 94.7172H13.1391C11.8418 92.5386 10.5444 90.3048 9.3299 88.0159Z" fill="white"/>
<path d="M74.4451 148.218C64.3148 152.189 61.7753 171.245 70.277 182C52.3352 174.333 43.9991 150.12 52.3352 131.809L74.4451 148.218Z" fill="#FF6A89"/>
</svg>
