<svg width="375" height="417" viewBox="0 0 375 417" fill="none" xmlns="http://www.w3.org/2000/svg">
<mask id="mask0" style="mask-type:alpha" maskUnits="userSpaceOnUse" x="0" y="0" width="375" height="417">
<rect width="375" height="417" fill="white"/>
</mask>
    <defs>
        <linearGradient id="paint0_linear" x1="227.954" y1="192.855" x2="198.439" y2="167.458" gradientUnits="userSpaceOnUse">
            <stop stop-color="#FFC2CC"/>
            <stop offset="1" stop-color="#FFF2F4"/>
        </linearGradient>
        <linearGradient id="paint1_linear" x1="128.5" y1="122" x2="128.5" y2="6" gradientUnits="userSpaceOnUse">
            <stop stop-color="#FFC2CC"/>
            <stop offset="1" stop-color="#FFF2F4"/>
        </linearGradient>
        <linearGradient id="paint2_linear" x1="282" y1="181" x2="282" y2="78" gradientUnits="userSpaceOnUse">
            <stop stop-color="#FFC2CC"/>
            <stop offset="1" stop-color="#FFF2F4"/>
        </linearGradient>
        <linearGradient id="paint3_linear" x1="299" y1="324" x2="299" y2="235" gradientUnits="userSpaceOnUse">
            <stop stop-color="#FFC2CC"/>
            <stop offset="1" stop-color="#FFF2F4"/>
        </linearGradient>
    </defs>
<g mask="url(#mask0)">
<path d="M315 231.936C315 328.402 232.717 406.773 131 406.773C29.2832 406.773 -53 328.402 -53 231.936C-53 135.47 29.2832 57.0986 131 57.0986C232.717 57.0986 315 135.47 315 231.936Z" stroke="#FFF1F3" stroke-width="4"/>
</g>
<path d="M183.115 220.409L199.53 201.332L187.615 181.651C187.45 181.376 187.385 181.045 187.43 180.703C187.475 180.361 187.628 180.026 187.866 179.745V179.745C188.105 179.468 188.416 179.259 188.756 179.147C189.095 179.035 189.447 179.024 189.762 179.118L223.593 188.988L211.997 165.554C211.864 165.287 211.819 164.975 211.87 164.657C211.92 164.339 212.063 164.029 212.281 163.765C212.51 163.509 212.797 163.309 213.111 163.187C213.426 163.065 213.757 163.025 214.067 163.072L228.785 165.95L246.763 145.056C247.199 146.144 247.578 147.261 247.909 148.413L230.439 168.716C230.218 168.974 229.934 169.174 229.622 169.291C229.31 169.408 228.983 169.438 228.68 169.376L216.587 167.023L228.425 190.846C228.561 191.118 228.604 191.434 228.551 191.757C228.497 192.079 228.348 192.393 228.123 192.658C227.882 192.923 227.575 193.121 227.242 193.227C226.909 193.333 226.565 193.342 226.256 193.252L192.933 183.502L203.074 200.269C203.243 200.542 203.31 200.874 203.265 201.216C203.22 201.559 203.065 201.895 202.822 202.175L186.822 220.77C185.597 220.676 184.352 220.567 183.115 220.409Z" fill="url(#paint0_linear)"/>
<path d="M98.8403 140.6C100.427 136.075 95.8417 131.377 91.9626 130.57C88.0834 129.763 84.5612 130.939 81.5784 133.436C79.3017 135.336 77.3264 138.195 74.2961 138.225C72.6222 138.225 71.1229 137.35 69.5363 136.716C67.9498 136.083 66.0062 135.857 64.7766 136.958C64.3947 137.36 64.1226 137.846 63.9843 138.372C63.846 138.898 63.8456 139.448 63.9833 139.974C64.2521 141.026 64.714 142.024 65.3478 142.923C64.6407 143.374 64.1137 144.038 63.8518 144.809C63.5899 145.579 63.6083 146.411 63.904 147.17C64.2285 147.919 64.7124 148.597 65.3254 149.16C65.9383 149.723 66.667 150.16 67.4659 150.443C69.0631 151 70.7348 151.34 72.4318 151.454C71.7734 153.55 71.2895 155.911 72.3684 157.834C73.8677 160.504 77.9214 161.077 80.7455 159.72C83.5696 158.362 85.41 155.647 86.7269 152.932C88.0437 150.217 89.0274 147.253 90.8599 144.779C92.6924 142.305 95.6672 140.321 98.7927 140.608" fill="#263238"/>
<path d="M74.092 130.163C74.1134 130.349 74.1814 130.527 74.2903 130.683C74.4422 130.913 74.6414 131.111 74.8759 131.265C75.1104 131.419 75.3754 131.527 75.6548 131.581C76.1049 131.692 76.5815 131.655 77.0066 131.476C77.4317 131.296 77.7801 130.985 77.995 130.593C78.2723 130.112 78.3833 129.561 78.3123 129.016C78.2333 128.399 77.9064 127.834 77.4 127.44C76.8484 127.01 76.1619 126.766 75.4485 126.746C74.6717 126.726 73.9117 126.963 73.2987 127.418C72.6476 127.898 72.1571 128.548 71.8867 129.288C71.6073 130.071 71.5688 130.913 71.7756 131.717C71.9842 132.566 72.4536 133.338 73.1242 133.934C73.8365 134.543 74.728 134.93 75.6786 135.043C76.6622 135.169 77.6622 134.986 78.5265 134.522C79.3863 134.037 80.1447 133.406 80.7636 132.659C81.4061 131.905 81.9773 131.189 82.596 130.51C83.1938 129.831 83.8974 129.244 84.6824 128.768C86.1676 127.867 87.8731 127.347 89.6325 127.259C91.2232 127.17 92.8124 127.458 94.2574 128.096C95.5142 128.665 96.6204 129.495 97.494 130.525C98.7874 132.012 99.5953 133.826 99.8183 135.744C99.8684 136.45 99.8684 137.158 99.8183 137.863C99.9767 137.162 100.022 136.443 99.9532 135.729C99.7842 133.763 98.9995 131.89 97.7002 130.351C96.8057 129.284 95.6732 128.418 94.3843 127.817C92.902 127.143 91.2652 126.835 89.6246 126.92C87.7989 126.984 86.0231 127.504 84.4761 128.428C83.6632 128.922 82.9331 129.53 82.3105 130.231C81.6679 130.925 81.0967 131.679 80.47 132.388C79.8849 133.1 79.1669 133.703 78.352 134.168C77.5572 134.593 76.6387 134.763 75.7341 134.65C74.8509 134.552 74.0204 134.2 73.3543 133.64C72.7357 133.094 72.3021 132.385 72.1088 131.603C71.9056 130.857 71.936 130.071 72.1961 129.341C72.4366 128.657 72.8836 128.057 73.4812 127.614C74.0102 127.214 74.6659 126.997 75.3414 126.997C76.017 126.997 76.6727 127.214 77.2017 127.614C77.6333 127.95 77.927 128.419 78.0314 128.941C78.1358 129.462 78.0443 130.001 77.7729 130.465C77.5636 130.851 77.2183 131.155 76.7971 131.324C76.4352 131.455 76.0414 131.484 75.6627 131.407C75.1339 131.326 74.6574 131.056 74.33 130.653C74.241 130.494 74.1615 130.33 74.092 130.163V130.163Z" fill="#263238"/>
<path d="M65.7148 131.739C65.7335 131.919 65.7761 132.096 65.8418 132.267C65.937 132.614 66.0877 133.119 66.3098 133.775C66.5732 134.566 66.8967 135.337 67.2776 136.083C67.7722 137.085 68.449 137.997 69.2767 138.775C70.2979 139.732 71.6061 140.365 73.021 140.586C73.8435 140.681 74.6779 140.594 75.4594 140.332C76.2409 140.071 76.9484 139.641 77.5269 139.077C78.7834 137.857 79.7374 136.386 80.3192 134.771C80.9113 133.072 81.6654 131.429 82.5722 129.861C83.5855 128.366 85.0396 127.188 86.7528 126.474C88.3435 125.801 90.0865 125.519 91.8219 125.652C92.6335 125.716 93.4333 125.879 94.2018 126.135C94.9161 126.385 95.5934 126.722 96.2167 127.138C97.3446 127.885 98.2891 128.855 98.9853 129.981C100.031 131.609 100.557 133.49 100.5 135.397C100.446 136.093 100.348 136.786 100.207 137.471C100.468 136.808 100.618 136.111 100.651 135.404C100.769 133.458 100.275 131.523 99.2312 129.846C98.5236 128.677 97.5606 127.666 96.4071 126.882C95.7623 126.446 95.0611 126.091 94.3207 125.826C93.5318 125.558 92.7112 125.383 91.8774 125.305C89.1041 125.067 86.3441 125.881 84.1984 127.568C83.4437 128.168 82.7909 128.875 82.2628 129.665C81.3439 131.254 80.5817 132.92 79.9861 134.642C79.4268 136.212 78.5083 137.644 77.2968 138.836C76.7595 139.367 76.1007 139.773 75.3715 140.023C74.6424 140.273 73.8625 140.359 73.0924 140.276C71.7363 140.078 70.4782 139.485 69.4909 138.579C68.6746 137.831 67.9985 136.957 67.4918 135.992C67.1076 135.258 66.7685 134.502 66.4764 133.73C66.2543 133.119 66.0798 132.629 65.937 132.221C65.875 132.056 65.8008 131.894 65.7148 131.739V131.739Z" fill="#263238"/>
<path d="M70.467 145.163C70.6647 145.174 70.8624 145.143 71.0461 145.073C71.59 144.896 72.0452 144.533 72.3233 144.054C72.5368 143.668 72.6279 143.23 72.5856 142.795C72.5434 142.36 72.3696 141.946 72.0853 141.603C71.6675 141.177 71.1175 140.889 70.5154 140.78C69.9134 140.672 69.2906 140.749 68.7377 141C68.0703 141.289 67.4923 141.737 67.0589 142.299C66.6256 142.862 66.3514 143.521 66.2626 144.213C66.1398 144.971 66.2078 145.747 66.4609 146.475C66.7328 147.257 67.2238 147.953 67.8809 148.489C68.5908 149.051 69.4193 149.46 70.3103 149.691C71.2014 149.921 72.1341 149.967 73.0452 149.824C74.9974 149.468 76.7397 148.433 77.9319 146.92C79.0733 145.413 79.8828 143.702 80.3117 141.89C80.7031 140.253 81.4787 138.722 82.5805 137.41C83.6334 136.273 84.9903 135.429 86.5073 134.966C87.8317 134.561 89.2417 134.478 90.6086 134.725C92.5971 135.116 94.3871 136.137 95.6856 137.621C96.1543 138.171 96.5636 138.765 96.9073 139.393C96.6638 138.713 96.2899 138.082 95.8046 137.531C94.5206 135.97 92.7016 134.886 90.6641 134.468C89.2515 134.194 87.7885 134.264 86.4121 134.672C84.8272 135.134 83.4059 136 82.3029 137.176C81.7142 137.815 81.2302 138.535 80.867 139.311C80.5025 140.115 80.1951 140.941 79.9468 141.784C79.5302 143.546 78.7511 145.212 77.6542 146.687C76.5232 148.124 74.8731 149.112 73.0214 149.462C72.1643 149.6 71.2861 149.562 70.4459 149.349C69.6057 149.137 68.823 148.757 68.1506 148.233C67.5588 147.745 67.1075 147.123 66.8396 146.423C66.5717 145.724 66.496 144.971 66.6196 144.235C66.6916 143.59 66.9375 142.973 67.3336 142.445C67.7296 141.916 68.2624 141.494 68.8805 141.219C69.3791 140.979 69.9453 140.897 70.4962 140.986C71.0472 141.074 71.554 141.327 71.9426 141.709C72.216 142.019 72.388 142.399 72.4373 142.801C72.4867 143.203 72.4112 143.61 72.2202 143.972C71.9679 144.432 71.5519 144.793 71.0461 144.99C70.6733 145.141 70.467 145.141 70.467 145.163Z" fill="#455A64"/>
<path d="M74.6953 160.436C74.6953 160.436 74.7905 160.489 74.9809 160.565C75.2615 160.663 75.5509 160.736 75.8456 160.783C76.9414 160.954 78.0653 160.839 79.0981 160.452C79.876 160.176 80.5856 159.75 81.1822 159.201C81.7788 158.652 82.2495 157.992 82.5647 157.261C83.2614 155.471 83.5559 153.562 83.4294 151.657C83.3011 149.801 83.4859 147.937 83.9768 146.137C84.1749 145.414 84.529 144.738 85.0166 144.153C85.5041 143.567 86.1145 143.084 86.8088 142.735C87.7685 142.286 88.8723 142.203 89.8947 142.501C90.2627 142.632 90.6139 142.801 90.9418 143.007C90.9418 143.007 90.8783 142.924 90.7276 142.796C90.4904 142.611 90.2222 142.466 89.9343 142.366C89.409 142.181 88.8503 142.097 88.2906 142.119C87.7309 142.141 87.1814 142.268 86.6739 142.494C85.9323 142.848 85.2767 143.345 84.7494 143.955C84.222 144.564 83.8346 145.271 83.6118 146.031C83.0886 147.865 82.8876 149.769 83.0169 151.665C83.1436 153.515 82.8737 155.37 82.2236 157.118C81.9039 157.858 81.4289 158.527 80.8274 159.086C80.2874 159.558 79.6645 159.936 78.987 160.203C77.9854 160.602 76.8928 160.75 75.8138 160.633C75.1078 160.55 74.7429 160.399 74.6953 160.436Z" fill="#455A64"/>
<path d="M103.088 143.044C103.766 142.531 104.223 141.799 104.373 140.987C104.523 140.174 104.355 139.338 103.902 138.635C103.448 137.933 102.74 137.412 101.911 137.171C101.081 136.93 100.188 136.986 99.3988 137.328C98.2564 137.825 97.3918 138.896 96.1542 139.123C94.6629 139.387 92.8304 138.368 91.7356 139.394C90.6409 140.42 91.3152 142.222 90.1491 142.962C89.6166 143.195 89.0492 143.347 88.4673 143.414C88.0169 143.545 87.6155 143.796 87.3113 144.137C87.007 144.479 86.8128 144.897 86.7517 145.341C86.6906 145.785 86.7653 146.236 86.9668 146.641C87.1684 147.045 87.4883 147.386 87.8882 147.623C87.1802 148.112 86.5995 148.749 86.1906 149.485C85.9942 149.86 85.9359 150.287 86.0251 150.698C86.1143 151.108 86.3457 151.478 86.6824 151.748C86.9908 151.903 87.3287 151.997 87.6762 152.026C88.0236 152.054 88.3735 152.016 88.7053 151.914C90.6549 151.527 92.4978 150.756 94.1155 149.651" fill="#FF6A89"/>
<path d="M98.817 141C98.6116 141.518 98.5067 142.068 98.5076 142.622C98.3791 143.158 98.3495 143.712 98.4204 144.258C98.7338 143.778 98.9013 143.224 98.9043 142.659C99.0321 142.109 99.002 141.536 98.817 141V141Z" fill="#263238"/>
<path d="M96.6595 141.378C96.5802 141.461 97.1752 142.072 97.6273 142.97C98.0795 143.867 98.2461 144.682 98.3651 144.667C98.4824 144.022 98.3469 143.359 97.9843 142.804C97.4845 141.831 96.723 141.303 96.6595 141.378Z" fill="#263238"/>
<path d="M90.75 145.767C90.75 145.872 91.3688 146.159 92.1145 146.596C92.8601 147.034 93.4313 147.456 93.5106 147.351C93.59 147.245 93.114 146.71 92.3207 146.25C91.8672 145.929 91.3152 145.759 90.75 145.767V145.767Z" fill="#263238"/>
<path d="M131.741 152.313C135.303 155.27 136.073 160.497 134.851 163.34C134.232 164.773 133.264 166.168 133.352 167.714C133.415 169.049 134.232 170.233 134.788 171.485C135.713 173.554 135.919 175.849 135.378 178.036C134.836 180.224 133.574 182.19 131.776 183.649C129.978 185.108 127.737 185.983 125.38 186.148C123.022 186.312 120.671 185.757 118.668 184.563" fill="#263238"/>
<path d="M130.953 172.172C143.749 153.513 122.552 140.141 109.534 141.687C97.3413 143.135 91.463 147.947 88.3534 155.104C85.2437 162.262 84.0379 170.332 85.9735 177.859C86.9254 181.577 89.0832 185.514 92.9544 186.525" fill="#263238"/>
<path d="M122.236 149.734L100.333 151.756C99.3288 151.711 98.3438 152.027 97.5726 152.64C96.8014 153.253 96.3003 154.119 96.1683 155.067L90.8532 202.009C90.5258 204.924 91.3874 207.848 93.2604 210.177C95.1334 212.507 97.875 214.064 100.92 214.528V214.528C102.507 214.773 104.13 214.713 105.692 214.351C107.254 213.99 108.725 213.335 110.016 212.424C111.308 211.514 112.395 210.367 113.213 209.051C114.031 207.735 114.563 206.276 114.779 204.761C115.437 200.168 115.826 196.903 115.818 196.933C115.81 196.963 124.703 196.82 128.209 186.336C129.962 181.125 131.081 172.323 131.747 165.098C132.326 158.589 129.098 150.051 122.236 149.734Z" fill="#FFBE9D"/>
<path d="M117.523 179.231C118.385 179.11 119.258 179.087 120.125 179.163C120.522 179.163 120.919 179.163 121.022 178.914C121.122 178.528 121.092 178.121 120.935 177.753C120.712 176.787 120.474 175.782 120.221 174.736C119.245 170.399 118.634 166.854 118.785 166.817C118.935 166.779 119.911 170.271 120.887 174.608C121.117 175.679 121.339 176.697 121.553 177.677C121.739 178.165 121.739 178.698 121.553 179.186C121.476 179.313 121.368 179.421 121.239 179.501C121.109 179.581 120.961 179.631 120.808 179.646C120.578 179.673 120.347 179.673 120.117 179.646C119.237 179.622 118.364 179.482 117.523 179.231V179.231Z" fill="#263238"/>
<path d="M115.787 196.933C110.454 196.238 105.428 194.149 101.27 190.899C101.27 190.899 104.022 198.675 115.485 199.309L115.787 196.933Z" fill="#EB996E"/>
<path d="M116.286 182.708C116.045 182.307 115.7 181.972 115.283 181.736C114.866 181.499 114.392 181.369 113.906 181.358C113.557 181.338 113.208 181.384 112.878 181.494C112.548 181.604 112.245 181.776 111.986 181.999C111.739 182.217 111.568 182.501 111.496 182.814C111.423 183.127 111.453 183.453 111.582 183.749C111.795 184.045 112.095 184.275 112.445 184.409C112.795 184.544 113.18 184.576 113.549 184.503C114.325 184.36 115.063 184.073 115.723 183.659C115.919 183.566 116.094 183.438 116.238 183.281C116.309 183.208 116.355 183.117 116.371 183.019C116.386 182.921 116.37 182.82 116.326 182.731" fill="#EB996E"/>
<path d="M112.766 179.594C113.028 179.594 112.766 181.23 114.035 182.611C115.304 183.991 117.129 184.044 117.105 184.27C117.105 184.375 116.661 184.526 115.891 184.436C114.898 184.305 113.985 183.846 113.313 183.139C112.671 182.459 112.33 181.57 112.361 180.657C112.401 179.941 112.655 179.571 112.766 179.594Z" fill="#263238"/>
<path d="M114.739 164.931C114.516 165.308 112.993 164.931 111.129 164.841C109.265 164.75 107.71 165.044 107.528 164.645C107.448 164.456 107.766 164.117 108.424 163.807C109.297 163.447 110.244 163.28 111.195 163.318C112.146 163.356 113.075 163.598 113.914 164.026C114.548 164.381 114.834 164.743 114.739 164.931Z" fill="#263238"/>
<path d="M130.203 165.134C129.878 165.429 128.855 164.923 127.569 164.72C126.284 164.516 125.142 164.599 124.952 164.214C124.864 164.026 125.094 163.717 125.626 163.46C126.33 163.171 127.108 163.089 127.861 163.223C128.615 163.357 129.309 163.703 129.854 164.214C130.275 164.622 130.346 164.991 130.203 165.134Z" fill="#263238"/>
<path d="M95.8511 169.426C95.7004 169.328 90.2109 166.002 89.1161 172.443C88.0214 178.884 95.0261 178.59 95.0658 178.409C95.1054 178.228 95.8511 169.426 95.8511 169.426Z" fill="#FFBE9D"/>
<path d="M93.4176 175.634C93.4176 175.634 93.2906 175.694 93.0764 175.747C92.7784 175.815 92.4641 175.775 92.1959 175.634C91.5216 175.272 91.1091 174.125 91.2757 172.941C91.3491 172.386 91.5553 171.855 91.8786 171.387C91.972 171.191 92.115 171.019 92.2949 170.888C92.4748 170.756 92.686 170.669 92.9099 170.633C93.0507 170.622 93.1912 170.657 93.3081 170.733C93.425 170.808 93.5112 170.919 93.5524 171.048C93.608 171.244 93.5524 171.365 93.5524 171.38C93.5524 171.395 93.719 171.297 93.7111 171.025C93.6981 170.86 93.6284 170.704 93.5128 170.58C93.3474 170.419 93.1229 170.324 92.8861 170.316C92.6004 170.327 92.3222 170.407 92.078 170.548C91.8337 170.689 91.6313 170.887 91.4899 171.123C91.1069 171.635 90.8618 172.228 90.7759 172.851C90.5935 174.148 91.0853 175.468 92.0134 175.867C92.1865 175.947 92.3763 175.989 92.5687 175.989C92.7611 175.989 92.951 175.947 93.124 175.867C93.3858 175.784 93.4414 175.649 93.4176 175.634Z" fill="#EB996E"/>
<path d="M125.003 146.822C128.47 149.213 128.85 156.763 126.693 160.277C124.535 163.792 120.212 165.768 115.936 166.032C111.66 166.296 107.424 165.067 103.513 163.392C102.815 165.964 100.736 168.4 97.9599 168.709C94.287 169.109 91.2249 165.527 90.9869 162.02C90.7489 158.512 92.4783 155.186 94.16 152.064" fill="#263238"/>
<path d="M91.4023 165.844C91.5265 166.041 91.6757 166.224 91.8466 166.387C92.2834 166.858 92.7468 167.306 93.2348 167.729C93.9546 168.377 94.7763 168.914 95.6702 169.32C96.7828 169.843 98.0443 170.008 99.2638 169.788C100.478 169.52 101.562 168.872 102.342 167.948C102.973 167.217 103.445 166.373 103.73 165.466C103.93 164.865 104.065 164.246 104.135 163.619C104.176 163.389 104.176 163.154 104.135 162.925C104.063 162.925 103.984 163.905 103.444 165.376C103.133 166.234 102.657 167.029 102.04 167.722C101.296 168.566 100.287 169.161 99.1607 169.419C98.0189 169.619 96.8398 169.474 95.7892 169.004C94.9269 168.623 94.1257 168.128 93.4094 167.533C92.1956 166.507 91.4737 165.791 91.4023 165.844Z" fill="#263238"/>
<path d="M76.1367 191.268C76.1367 191.268 76.1764 191.388 76.2954 191.592C76.4894 191.89 76.7153 192.168 76.9697 192.422C77.5592 193.008 78.2843 193.456 79.0875 193.729C79.8907 194.002 80.7499 194.094 81.5968 193.997C82.4438 193.899 83.2552 193.616 83.9668 193.168C84.6783 192.721 85.2703 192.122 85.6958 191.419C86.0297 190.928 86.2406 190.37 86.3121 189.79C86.3837 189.209 86.3139 188.621 86.1083 188.07C85.8377 187.481 85.3329 187.017 84.7042 186.78C84.3818 186.644 84.0282 186.589 83.677 186.619C83.3258 186.649 82.9885 186.765 82.6972 186.954C82.4234 187.161 82.2031 187.425 82.0532 187.726C81.9033 188.026 81.8278 188.356 81.8325 188.688C81.8399 189.328 82.0939 189.942 82.5465 190.415C82.9675 190.835 83.4716 191.17 84.0299 191.404C84.5881 191.637 85.1894 191.762 85.799 191.773C86.8209 191.827 87.8384 191.608 88.7358 191.14C89.6332 190.672 90.3747 189.974 90.876 189.126C91.5212 187.968 91.6908 186.624 91.352 185.355C91.2591 185.017 91.126 184.691 90.9553 184.382C90.8986 184.274 90.8294 184.173 90.7491 184.08C90.9332 184.504 91.0844 184.94 91.2012 185.385C91.4729 186.613 91.2701 187.893 90.6301 188.99C90.1428 189.779 89.4345 190.424 88.5843 190.853C87.7341 191.282 86.7753 191.477 85.8148 191.419C85.256 191.406 84.7054 191.288 84.1947 191.072C83.6841 190.856 83.2237 190.545 82.84 190.159C82.4384 189.75 82.2194 189.21 82.2292 188.651C82.2229 188.377 82.2825 188.106 82.4035 187.857C82.5245 187.609 82.7037 187.39 82.9273 187.218C83.1597 187.073 83.4265 186.985 83.7035 186.963C83.9805 186.94 84.259 186.984 84.5138 187.089C84.7796 187.187 85.0223 187.335 85.2279 187.522C85.4335 187.71 85.5979 187.934 85.7117 188.183C85.8961 188.679 85.9583 189.21 85.8937 189.733C85.829 190.256 85.6392 190.757 85.3388 191.2C84.8513 191.983 84.1537 192.629 83.3174 193.071C82.4811 193.514 81.5361 193.738 80.5791 193.719C79.263 193.643 78.0165 193.131 77.0569 192.271C76.7267 191.957 76.4192 191.621 76.1367 191.268V191.268Z" fill="#263238"/>
<path d="M78.7539 180.498C79.0951 180.951 79.5365 181.327 80.047 181.6C81.2309 182.349 82.5957 182.801 84.0134 182.912C84.7892 182.984 85.5717 182.951 86.3377 182.814C86.9874 182.716 87.598 182.456 88.1068 182.06C88.4464 181.78 88.6712 181.396 88.7414 180.974C88.7414 180.672 88.7414 180.514 88.6779 180.521C88.6145 180.529 88.6779 180.679 88.5907 180.943C88.4737 181.306 88.2408 181.625 87.9243 181.856C87.131 182.444 85.6158 182.61 84.0531 182.512C82.6964 182.398 81.3828 182.002 80.2056 181.351C79.2775 180.883 78.8015 180.446 78.7539 180.498Z" fill="#263238"/>
<path d="M91.8215 150.292C91.7739 150.292 91.7263 150.812 91.3614 151.68C90.8209 152.898 90.0431 154.009 89.0688 154.953C87.8789 156.19 86.1813 157.382 84.4281 158.882C83.4933 159.658 82.6621 160.539 81.953 161.507C81.2034 162.563 80.6432 163.731 80.2951 164.961C79.6272 167.347 79.6766 169.864 80.4379 172.224C81.0785 174.129 82.1174 175.892 83.492 177.406C84.4063 178.428 85.4509 179.337 86.6017 180.113C87.0142 180.377 87.3315 180.581 87.5616 180.702C87.6747 180.77 87.7942 180.828 87.9186 180.875C87.9186 180.875 87.4743 180.566 86.689 179.993C85.5902 179.183 84.5897 178.26 83.7062 177.24C82.3881 175.732 81.396 173.992 80.7869 172.119C80.0686 169.82 80.0302 167.378 80.6758 165.059C81.0101 163.871 81.546 162.743 82.2624 161.718C82.9482 160.772 83.7468 159.904 84.6423 159.131C86.3637 157.623 88.0613 156.409 89.2433 155.126C90.2193 154.149 90.9775 152.995 91.4725 151.733C91.601 151.389 91.6966 151.036 91.7581 150.677C91.7918 150.551 91.813 150.422 91.8215 150.292V150.292Z" fill="#263238"/>
<path d="M129.891 153.219C129.891 153.219 130.43 153.415 131.382 153.837C132.722 154.414 133.919 155.251 134.896 156.296C135.55 157.022 136.048 157.862 136.364 158.77C136.715 159.811 136.765 160.924 136.507 161.99C136.261 163.129 135.769 164.253 135.412 165.535C135.216 166.178 135.109 166.842 135.095 167.511C135.088 168.215 135.257 168.91 135.586 169.54C136.343 170.673 137.276 171.69 138.355 172.557C139.283 173.374 139.958 174.417 140.306 175.573C140.599 176.559 140.634 177.598 140.408 178.599C140.183 179.601 139.704 180.535 139.013 181.32C138.053 182.378 136.769 183.124 135.341 183.455C134.818 183.564 134.288 183.637 133.754 183.674C134.299 183.745 134.853 183.719 135.388 183.598C136.876 183.311 138.227 182.573 139.236 181.494C139.984 180.681 140.507 179.704 140.758 178.65C141.008 177.597 140.979 176.5 140.671 175.46C140.323 174.232 139.622 173.12 138.649 172.247C137.602 171.401 136.695 170.409 135.959 169.306C135.4 168.115 135.343 166.765 135.801 165.535C136.142 164.313 136.634 163.152 136.879 161.967C137.147 160.844 137.081 159.671 136.689 158.581C136.348 157.638 135.808 156.77 135.103 156.032C134.087 154.977 132.838 154.15 131.445 153.611C131.072 153.461 130.691 153.33 130.303 153.219C130.166 153.199 130.027 153.199 129.891 153.219V153.219Z" fill="#263238"/>
<path d="M90.3516 150.806C90.4024 150.946 90.4661 151.083 90.542 151.213C90.7522 151.588 90.9853 151.95 91.2401 152.299C92.1835 153.589 93.3992 154.678 94.8098 155.497C95.7912 156.068 96.8625 156.485 97.983 156.734C99.2699 157.008 100.601 157.044 101.902 156.839C103.346 156.625 104.722 156.11 105.932 155.331C107.193 154.446 108.24 153.315 109.002 152.012C109.728 150.744 110.627 149.573 111.675 148.528C112.696 147.606 113.909 146.899 115.237 146.454C117.504 145.679 119.993 145.735 122.218 146.612C123.712 147.21 125.042 148.126 126.105 149.29C126.843 150.127 127.136 150.677 127.168 150.655C127.121 150.514 127.054 150.379 126.97 150.255C126.749 149.886 126.5 149.533 126.224 149.199C125.185 147.971 123.848 147.001 122.329 146.371C120.044 145.426 117.467 145.34 115.118 146.13C113.736 146.584 112.471 147.312 111.405 148.264C110.332 149.329 109.409 150.524 108.661 151.816C107.929 153.075 106.922 154.17 105.71 155.029C104.554 155.795 103.235 156.31 101.846 156.538C99.4728 156.925 97.0319 156.489 94.9685 155.308C93.5713 154.521 92.3503 153.481 91.3749 152.246C90.6768 151.349 90.3833 150.806 90.3516 150.806Z" fill="#455A64"/>
<path d="M100.129 143.301C100.129 143.301 100.169 143.399 100.28 143.557C100.443 143.791 100.638 144.004 100.859 144.191C101.699 144.864 102.727 145.291 103.818 145.42C105.419 145.591 107.04 145.442 108.577 144.983C110.416 144.428 112.323 144.104 114.249 144.017C117.774 143.978 121.225 144.98 124.126 146.883C125.3 147.703 126.391 148.625 127.386 149.636C127.184 149.313 126.944 149.012 126.672 148.739C125.954 147.973 125.157 147.278 124.292 146.665C121.37 144.664 117.85 143.607 114.249 143.648C112.288 143.735 110.349 144.073 108.482 144.651C106.986 145.109 105.409 145.283 103.841 145.164C102.79 145.062 101.788 144.686 100.946 144.078C100.659 143.833 100.387 143.573 100.129 143.301V143.301Z" fill="#455A64"/>
<path d="M87.9051 158.348C87.7973 158.921 87.7973 159.509 87.9051 160.082C88.1101 161.476 88.618 162.814 89.3965 164.011C90.1749 165.209 91.2069 166.239 92.4268 167.036C92.8996 167.382 93.4383 167.638 94.0134 167.79C94.0134 167.738 93.4263 167.436 92.5458 166.802C91.4155 165.963 90.4489 164.942 89.69 163.786C88.9304 162.628 88.3932 161.351 88.1034 160.014C87.9844 159.034 87.9765 158.348 87.9051 158.348Z" fill="#455A64"/>
<path d="M85.8475 161.53C85.7211 161.955 85.6967 162.401 85.7761 162.835C85.8957 163.891 86.2487 164.912 86.8119 165.829C87.3751 166.747 88.1359 167.541 89.0444 168.16C89.4009 168.444 89.8218 168.645 90.274 168.748C89.9396 168.462 89.5873 168.195 89.219 167.949C88.3915 167.301 87.6906 166.52 87.1485 165.641C86.6147 164.76 86.2444 163.798 86.0538 162.797C86.0132 162.371 85.9443 161.948 85.8475 161.53V161.53Z" fill="#455A64"/>
<path d="M130.559 178.711C130.924 178.756 131.295 178.703 131.63 178.56C132.475 178.282 133.231 177.804 133.826 177.17C134.422 176.537 134.837 175.769 135.033 174.94C135.134 174.605 135.134 174.249 135.033 173.914C134.907 174.226 134.806 174.546 134.732 174.872C134.482 175.621 134.07 176.312 133.524 176.901C132.978 177.491 132.308 177.966 131.559 178.296C130.948 178.568 130.543 178.65 130.559 178.711Z" fill="#455A64"/>
<path d="M100.652 159.645C100.742 159.708 100.841 159.759 100.946 159.796C101.234 159.928 101.531 160.041 101.834 160.135C102.953 160.493 104.129 160.664 105.309 160.641C107.065 160.62 108.796 160.234 110.378 159.509C111.31 159.075 112.177 158.525 112.956 157.873C113.781 157.159 114.497 156.339 115.082 155.437C116.296 153.642 117.288 151.786 118.858 150.723C119.589 150.228 120.441 149.922 121.333 149.833C122.115 149.777 122.901 149.861 123.65 150.082C124.751 150.406 125.771 150.94 126.648 151.651C127.275 152.148 127.569 152.488 127.6 152.458C127.548 152.365 127.484 152.279 127.41 152.201C127.207 151.965 126.987 151.743 126.751 151.537C125.888 150.767 124.86 150.183 123.737 149.825C122.953 149.577 122.126 149.475 121.302 149.524C120.346 149.603 119.43 149.921 118.644 150.444C116.97 151.56 115.947 153.461 114.749 155.233C113.676 156.946 112.099 158.323 110.211 159.193C108.682 159.915 107.008 160.319 105.301 160.377C104.147 160.42 102.993 160.29 101.882 159.992C101.089 159.788 100.668 159.607 100.652 159.645Z" fill="#455A64"/>
<path d="M128.083 172.798C128.008 173.159 127.788 173.478 127.47 173.688C127.151 173.898 126.76 173.981 126.378 173.922C126.004 173.876 125.665 173.692 125.434 173.409C125.204 173.127 125.101 172.768 125.148 172.413C125.219 172.052 125.437 171.731 125.755 171.521C126.072 171.311 126.464 171.228 126.846 171.289C127.219 171.335 127.559 171.519 127.791 171.801C128.023 172.084 128.128 172.442 128.083 172.798V172.798Z" fill="#263238"/>
<path d="M129.235 170.414C129.013 170.558 128.077 169.57 126.514 169.268C124.951 168.966 123.643 169.487 123.516 169.268C123.444 169.177 123.698 168.883 124.309 168.634C125.082 168.322 125.938 168.243 126.76 168.408C127.573 168.566 128.311 168.965 128.87 169.547C129.251 170.022 129.338 170.414 129.235 170.414Z" fill="#263238"/>
<path d="M112.607 170.097C112.532 170.459 112.312 170.778 111.994 170.988C111.676 171.197 111.284 171.281 110.902 171.221C110.717 171.2 110.538 171.144 110.375 171.056C110.213 170.969 110.07 170.851 109.956 170.711C109.842 170.571 109.758 170.41 109.709 170.239C109.66 170.068 109.648 169.889 109.672 169.713C109.746 169.352 109.964 169.033 110.281 168.823C110.598 168.613 110.989 168.529 111.37 168.589C111.743 168.636 112.082 168.821 112.313 169.103C112.545 169.385 112.65 169.742 112.607 170.097V170.097Z" fill="#263238"/>
<path d="M113.796 167.721C113.574 167.865 112.637 166.877 111.075 166.575C109.512 166.273 108.203 166.794 108.068 166.575C108.005 166.484 108.258 166.19 108.861 165.941C109.635 165.63 110.49 165.551 111.313 165.715C112.127 165.874 112.868 166.273 113.431 166.854C113.804 167.299 113.899 167.661 113.796 167.721Z" fill="#263238"/>
<path d="M147.368 244.899L63.3594 282.384L82.192 198.666C82.192 198.666 93.9802 211.201 103.016 210.228C115.534 208.886 114.979 198.161 115.296 198.161C119.032 198.161 131.36 202.898 134.557 210.983C134.557 210.983 148.709 243.119 147.368 244.922" fill="#FF6A89"/>
<path d="M144.002 233.663L166.761 316.453L150.586 320.684C150.586 320.684 119.584 257.044 120.084 256.003C120.584 254.962 144.002 233.663 144.002 233.663Z" fill="#FF6A89"/>
<g opacity="0.2">
<path opacity="0.2" d="M126.125 229.129C129.172 229.174 131.908 231.135 133.527 233.586C135.145 236.037 135.811 238.934 136.327 241.785C137.289 247.109 137.79 252.5 137.826 257.902C137.826 260.783 137.826 263.86 139.413 266.304C140.999 268.747 144.077 270.075 146.664 271.734C150.162 273.999 153.019 277.05 154.978 280.617C156.938 284.185 157.94 288.157 157.897 292.181C157.73 300.198 152.177 305.477 145.156 309.633L133.765 275.354L124.555 236.467L126.125 229.129Z" fill="black"/>
</g>
<path d="M128.836 216.422C128.987 216.422 128.288 220.253 127.249 224.914C126.21 229.575 125.314 233.339 125.171 233.309C125.028 233.278 125.726 229.477 126.757 224.816C127.789 220.155 128.685 216.354 128.836 216.422Z" fill="#263238"/>
<path d="M108.581 220.335C108.447 220.267 109.049 219.031 109.914 217.575C110.779 216.119 111.588 214.996 111.723 215.063C111.858 215.131 111.247 216.368 110.382 217.824C109.517 219.279 108.708 220.403 108.581 220.335Z" fill="#FAFAFA"/>
<path d="M121.699 225.253C121.58 225.321 120.628 224.046 119.85 222.274C119.073 220.502 118.787 218.955 118.93 218.925C119.073 218.895 119.58 220.343 120.35 222.078C121.119 223.813 121.833 225.178 121.699 225.253Z" fill="#FAFAFA"/>
<path d="M125.022 211.376C125.022 211.505 123.499 211.241 121.793 210.547C120.088 209.853 118.85 209.038 118.929 208.918C119.009 208.797 120.333 209.408 122.007 210.079C123.681 210.75 125.061 211.233 125.022 211.376Z" fill="#FAFAFA"/>
<path d="M135.564 232.109C135.43 232.026 136.096 230.88 136.691 229.394C137.286 227.909 137.619 226.634 137.77 226.657C137.921 226.679 137.825 228.029 137.191 229.575C136.556 231.121 135.676 232.185 135.564 232.109Z" fill="#FAFAFA"/>
<path d="M145.718 268.997C145.63 269.111 144.448 268.454 143.068 267.534C141.688 266.614 140.64 265.769 140.728 265.656C140.815 265.543 141.997 266.199 143.377 267.119C144.758 268.04 145.805 268.877 145.718 268.997Z" fill="#FAFAFA"/>
<path d="M153.833 311.324C153.698 311.256 154.412 309.816 155.229 308.043C156.046 306.271 156.665 304.793 156.816 304.838C156.966 304.883 156.562 306.437 155.729 308.247C154.896 310.057 153.96 311.392 153.833 311.324Z" fill="#FAFAFA"/>
<g opacity="0.2">
<path opacity="0.2" d="M116.834 244.44C111.542 244.003 106.021 250.044 105.886 255.308C105.842 255.882 105.929 256.459 106.14 256.998C106.252 257.264 106.431 257.499 106.663 257.682C106.894 257.865 107.17 257.99 107.465 258.046C107.923 258.091 108.384 257.995 108.781 257.772C109.178 257.55 109.49 257.212 109.67 256.809C109.993 256.061 110.173 255.264 110.202 254.456C109.987 249.003 112.748 245.587 116.834 244.274" fill="black"/>
</g>
<path d="M152.562 320.147L156.45 330.495H186.944C186.944 330.495 185.246 328.059 179.011 327.478L167.611 326.437L164.795 316.957L152.562 320.147Z" fill="#FFBE9D"/>
<path d="M81.6127 292.845C82.6201 292.92 132.224 277.044 132.224 277.044C132.224 277.044 154.722 272.3 157.332 286.019C159.942 299.738 136.706 316.006 136.706 316.006L95.5507 335.691L74.1875 319.747L77.2734 307.68L81.6127 292.845Z" fill="#FFBE9D"/>
<path d="M99.7609 310.396L72.1862 326.355C71.3887 326.813 70.8082 327.547 70.5658 328.403C70.3235 329.259 70.4379 330.17 70.8853 330.948L88.9325 359.721C88.9325 359.721 92.1691 362.134 87.3935 340.685L111.462 328.044L99.7609 310.396Z" fill="#EBEBEB"/>
<path d="M113.279 300.998C113.366 301.111 110.447 303.321 106.758 305.923C103.069 308.525 99.9993 310.554 99.9121 310.448C99.8248 310.343 102.744 308.133 106.433 305.523C110.122 302.914 113.192 300.893 113.279 300.998Z" fill="#EB996E"/>
<path d="M86.9594 315.147C94.099 302.484 100.802 286.042 107.299 267.481L114.074 303.344L117.961 323.903L134.501 322.395L132.565 245.315C132.565 245.315 128.559 229.59 114.169 228.677C101.778 227.923 90.8148 234.764 83.0803 250.511C78.3093 260.182 72.7527 269.485 66.4609 278.334L86.9594 315.147Z" fill="#FFBE9D"/>
<path d="M28.5352 323.903C34.4946 327.753 41.3671 330.134 48.5345 330.831C55.7019 331.529 62.9393 330.522 69.5956 327.901L87.1193 316.731C87.1193 316.731 85.4296 297.302 79.7418 289.089L74.6885 290.288L78.06 286.283L69.5956 274.329L47.2964 295.175L28.5352 323.903Z" fill="#FF6A89"/>
<g opacity="0.4">
<path opacity="0.4" d="M28.5352 323.903C34.4946 327.753 41.3671 330.134 48.5345 330.831C55.7019 331.529 62.9393 330.522 69.5956 327.901L87.1193 316.731C87.1193 316.731 85.4296 297.302 79.7418 289.089L74.6885 290.288L78.06 286.283L69.5956 274.329L47.2964 295.175L28.5352 323.903Z" fill="black"/>
</g>
<path d="M105.469 272.632C105.469 272.632 105.469 272.79 105.342 273.077C105.215 273.363 105.064 273.831 104.874 274.321C104.437 275.475 103.85 277.006 103.136 278.847C101.677 282.693 99.8045 288.055 97.5833 293.931C95.7315 298.978 93.5019 303.893 90.9118 308.638C90.412 309.543 89.9281 310.35 89.476 311.044C89.0238 311.738 88.6827 312.341 88.3019 312.808L87.5086 313.895C87.4224 314.025 87.3184 314.144 87.1992 314.249C87.2535 314.102 87.3282 313.962 87.4213 313.834C87.6117 313.525 87.8497 313.155 88.1274 312.703C88.405 312.25 88.8096 311.609 89.2221 310.9C89.6346 310.191 90.1106 309.392 90.5866 308.472C93.0623 303.695 95.2345 298.781 97.0915 293.757C99.3286 287.897 101.272 282.542 102.819 278.718C103.612 276.81 104.239 275.264 104.723 274.193C104.945 273.718 105.127 273.318 105.278 272.986C105.327 272.861 105.391 272.742 105.469 272.632Z" fill="#EB996E"/>
<path d="M108.289 272.753C108.45 273.11 108.562 273.485 108.622 273.869C108.805 274.623 109.043 275.642 109.328 276.939C109.899 279.541 110.629 283.146 111.375 287.136C112.121 291.125 112.716 294.753 113.081 297.385C113.255 298.705 113.39 299.769 113.461 300.508C113.519 300.892 113.537 301.281 113.517 301.669C113.379 301.304 113.288 300.924 113.247 300.538C113.104 299.701 112.922 298.66 112.7 297.438C112.208 294.708 111.557 291.156 110.843 287.219C110.129 283.282 109.463 279.737 108.955 277.007C108.741 275.785 108.567 274.744 108.416 273.907C108.334 273.527 108.291 273.141 108.289 272.753V272.753Z" fill="#EB996E"/>
<path d="M133.954 298.449C133.803 298.449 133.605 291.08 133.501 281.992C133.398 272.904 133.43 265.527 133.581 265.527C133.732 265.527 133.93 272.896 134.033 281.984C134.136 291.072 134.104 298.449 133.954 298.449Z" fill="#EB996E"/>
<path d="M112.645 302.008L118.198 331.354C118.404 332.459 119.05 333.445 120.001 334.108C120.953 334.771 122.137 335.06 123.306 334.914L158.6 330.517C158.6 330.517 160.678 327.41 137.911 323.903L134.88 298.26L112.645 302.008Z" fill="#E0E0E0"/>
<path d="M70.0795 291.352C69.8875 291.628 69.6611 291.881 69.4052 292.106C68.961 292.566 68.2708 293.184 67.3982 293.931C62.8119 297.783 57.498 300.773 51.7387 302.74C50.6361 303.117 49.7317 303.389 49.0971 303.547C48.7772 303.657 48.444 303.728 48.1055 303.758C48.4075 303.612 48.7236 303.493 49.0495 303.404C49.6682 303.2 50.5567 302.891 51.6356 302.484C57.2981 300.379 62.5608 297.408 67.2157 293.69C68.1121 292.981 68.8023 292.385 69.3021 291.97C69.5403 291.741 69.8005 291.534 70.0795 291.352Z" fill="white"/>
<path d="M91.774 194.708C91.774 194.708 70.8234 198.102 63.4299 207.318C57.5675 214.627 49.6029 257.353 35.9584 269.397C31.5081 273.327 23.131 281.585 20.9574 288.494C17.2369 300.327 18.2047 320.925 29.271 323.904C29.271 323.904 41.9636 317.712 47.9926 305.433C48.8913 303.566 49.9361 301.766 51.1181 300.048L59.6063 288.026C59.6063 288.026 69.1257 278.048 73.6474 269.82L81.7945 254.886L83.8253 250.489L91.0997 199.656L91.774 194.708Z" fill="#FF6A89"/>
<path d="M77.1927 235.917C77.1927 236.045 74.9239 235.917 72.6789 234.409C70.4339 232.9 69.4661 230.985 69.593 230.947C69.72 230.909 70.8464 232.614 72.9883 233.964C75.1302 235.314 77.2244 235.766 77.1927 235.917Z" fill="#263238"/>
<path d="M45.9453 269.261C46.4379 269.18 46.9369 269.14 47.4367 269.14C47.9127 269.14 48.4997 269.087 49.1819 269.012C49.8641 268.937 50.6336 268.906 51.4745 268.771C53.4592 268.509 55.425 268.131 57.3607 267.639C62.1055 266.419 66.617 264.492 70.7276 261.93C72.4045 260.887 74.0077 259.741 75.527 258.498C76.2013 257.985 76.7486 257.465 77.2484 256.99C77.7482 256.515 78.1686 256.16 78.5018 255.836C78.8335 255.477 79.2 255.149 79.5965 254.855C79.3183 255.254 79.0023 255.628 78.6525 255.972C78.2777 256.398 77.8806 256.806 77.4626 257.194C76.9707 257.654 76.4392 258.197 75.7808 258.702C74.2831 259.99 72.6926 261.177 71.0211 262.254C66.9027 264.891 62.3423 266.842 57.5352 268.024C55.5759 268.506 53.582 268.852 51.5697 269.057C50.713 269.17 49.9276 269.185 49.2454 269.231C48.5632 269.276 47.9761 269.276 47.4922 269.268C46.9776 269.315 46.4594 269.313 45.9453 269.261V269.261Z" fill="#263238"/>
<path d="M31.3867 298.193C31.4873 297.77 31.6335 297.358 31.823 296.964C32.2968 295.87 32.8758 294.82 33.5524 293.826C35.7724 290.498 38.8971 287.802 42.5962 286.023C46.2952 284.244 50.4311 283.448 54.5665 283.72C55.8079 283.793 57.0398 283.972 58.2474 284.256C58.6964 284.338 59.1333 284.473 59.5484 284.655C57.8944 284.38 56.2261 284.188 54.5507 284.082C50.4961 283.913 46.4641 284.739 42.8422 286.48C39.2203 288.221 36.1305 290.818 33.8697 294.023C32.9677 295.372 32.1389 296.764 31.3867 298.193Z" fill="#263238"/>
<path d="M62.7567 281.69C62.7567 281.834 59.5359 282.015 55.6171 282.332C51.6983 282.648 48.4379 282.98 48.4141 282.837C49.0834 282.604 49.7823 282.457 50.4925 282.399C51.7855 282.203 53.5784 281.985 55.5695 281.826C57.5607 281.668 59.3694 281.592 60.6783 281.585C61.373 281.534 62.0716 281.57 62.7567 281.69V281.69Z" fill="#263238"/>
<g opacity="0.2">
<path opacity="0.2" d="M59.0903 288.237C59.3283 288.335 59.7646 285.785 59.5504 284.654C55.584 283.078 53.2041 284.232 50.4276 283.839C50.0786 283.794 46.4057 285.189 46.1994 284.91C45.8107 284.367 48.4206 282.987 49.0949 282.836C54.3385 281.69 58.6937 281.109 62.0889 279.163C63.0325 278.717 63.8629 278.081 64.523 277.3C65.1831 276.518 65.6572 275.61 65.9126 274.638L67.4991 269.826C67.8006 268.929 67.9593 267.692 67.0628 267.292C66.4123 266.998 65.6667 267.405 65.0162 267.707C64.3657 268.009 63.4296 268.107 63.0805 267.481C62.6839 266.726 63.739 266.048 64.5799 265.746C68.6253 264.241 72.1807 261.746 74.886 258.515C77.5913 255.283 79.3505 251.429 79.9855 247.343L79.5968 240.85L83.3173 250.76L73.0997 270.128C69.1476 276.637 64.4492 282.711 59.0903 288.237V288.237Z" fill="black"/>
</g>
<path d="M57.8776 245.3C57.7269 245.3 57.4175 242.615 57.1795 239.266C56.9415 235.917 56.878 233.232 57.0208 233.232C57.1636 233.232 57.4809 235.917 57.7189 239.266C57.9569 242.615 58.0204 245.285 57.8776 245.3Z" fill="#FAFAFA"/>
<path d="M70.7281 250.746C70.8471 250.829 69.8 252.397 68.3483 254.245C66.8966 256.093 65.6828 257.533 65.5638 257.45C65.4448 257.368 66.4999 255.799 67.9437 253.951C69.3875 252.103 70.6091 250.663 70.7281 250.746Z" fill="#FAFAFA"/>
<path d="M52.4286 267.579C52.2937 267.632 51.8019 266.681 51.3418 265.475C50.8817 264.268 50.6278 263.212 50.7627 263.212C50.8975 263.212 51.3894 264.109 51.8495 265.324C52.3096 266.538 52.5714 267.534 52.4286 267.579Z" fill="#FAFAFA"/>
<path d="M41.4969 276.893C41.6159 276.991 40.6005 278.213 39.601 279.849C38.6015 281.486 37.9589 282.927 37.8161 282.866C37.6733 282.806 38.0938 281.275 39.133 279.585C40.1722 277.896 41.4256 276.802 41.4969 276.893Z" fill="#FAFAFA"/>
<path d="M54.5135 252.427C54.5135 252.563 52.8635 252.948 50.7454 253.046C48.6273 253.144 46.9217 252.917 46.9376 252.782C46.9535 252.646 48.6432 252.631 50.7216 252.533C52.8 252.435 54.4897 252.284 54.5135 252.427Z" fill="#FAFAFA"/>
<path d="M72.9189 241.763C72.7682 241.763 72.9189 240.722 73.03 239.5C73.1411 238.278 73.1331 237.237 73.2839 237.237C73.4346 237.237 73.6726 238.255 73.5615 239.553C73.4504 240.85 73.0538 241.8 72.9189 241.763Z" fill="#FAFAFA"/>
<path d="M69.7757 220.855C69.7757 220.984 68.3398 221.519 66.4201 221.76C64.5003 222.002 62.9296 221.874 62.9375 221.76C62.9455 221.647 64.4765 221.527 66.3487 221.278C68.2208 221.029 69.7281 220.72 69.7757 220.855Z" fill="#FAFAFA"/>
<path d="M186.24 222.349L171.525 233.014L165.25 235.676L171.525 226.679L183.424 218.684C183.934 218.345 184.564 218.21 185.178 218.307C185.792 218.404 186.341 218.726 186.708 219.204V219.204C187.081 219.682 187.24 220.28 187.152 220.868C187.065 221.457 186.737 221.989 186.24 222.349Z" fill="#263238"/>
<path d="M127.891 247.381C128.557 247.381 148.675 239.839 149.119 238.783C149.563 237.727 149.333 234.854 153.331 233.798C157.329 232.742 161.447 231.414 161.447 231.414L171.68 224.943C171.68 224.943 174.536 225.841 171.958 228.714C170.498 230.304 168.906 231.779 167.198 233.127C166.27 233.881 167.65 234.635 167.65 234.635L182.104 224.943C181.799 227.411 180.801 229.756 179.216 231.731L177.217 234.258C177.574 235.218 177.613 236.258 177.329 237.24C177.046 238.221 176.453 239.097 175.631 239.748C172.751 242.275 168.142 248.799 163.263 249.003C158.385 249.206 154.958 249.538 154.958 249.538L129.572 261.334L127.891 247.381Z" fill="#FFBE9D"/>
<path d="M177.909 233.271C177.996 233.384 176.41 234.688 174.363 236.182C172.316 237.675 170.587 238.799 170.5 238.686C170.412 238.573 171.991 237.275 174.038 235.782C176.084 234.289 177.814 233.165 177.909 233.271Z" fill="#EB996E"/>
<path d="M72.9102 202.024C72.9102 202.024 85.3568 196.103 92.9644 200.38C99.0489 203.796 103.38 219.061 107.513 227.373C108.552 229.462 110.805 231.023 111.646 231.943C115.795 236.551 116.834 244.44 116.834 244.44L145.591 239.417L148.677 256.847C148.677 256.847 120.634 276.803 104.523 272.233C87.7843 267.444 82.2471 248.098 82.2471 248.098L72.9102 202.024Z" fill="#FF6A89"/>
<path d="M110.259 254.954C110.253 254.881 110.253 254.808 110.259 254.735C110.259 254.562 110.22 254.343 110.196 254.072C110.148 253.709 110.135 253.343 110.156 252.978C110.157 252.472 110.208 251.967 110.307 251.47C110.539 250.079 111.13 248.765 112.028 247.646C113.249 246.125 114.9 244.966 116.788 244.305V244.305L145.537 239.199L145.767 239.153L145.807 239.38C146.758 244.727 147.814 250.61 148.924 256.802V256.96L148.789 257.051C142.637 261.173 136.121 264.781 129.314 267.836L127.323 268.696C126.665 268.975 125.982 269.209 125.308 269.45C124.634 269.691 123.975 269.955 123.301 270.204L121.262 270.845C119.922 271.305 118.533 271.599 117.177 271.931C116.495 272.09 115.804 272.188 115.122 272.323C114.441 272.459 113.753 272.557 113.06 272.618C110.363 272.99 107.621 272.955 104.936 272.512C102.348 272.081 99.8901 271.118 97.7334 269.691C93.7846 267.058 90.4427 263.685 87.9125 259.781C85.6877 256.413 83.8272 252.84 82.3595 249.116C80.995 245.715 79.9796 242.585 79.0277 239.84C78.0757 237.094 77.3142 234.734 76.6478 232.81C75.9815 230.887 75.3706 229.424 74.9819 228.421C74.7836 227.946 74.6329 227.569 74.5139 227.29C74.4544 227.163 74.4066 227.032 74.3711 226.897C74.4513 227.016 74.5178 227.142 74.5694 227.275C74.6884 227.546 74.8629 227.916 75.0771 228.383C75.5055 229.371 76.1322 230.834 76.8461 232.75C77.5601 234.666 78.4327 237.019 79.345 239.749C80.2573 242.479 81.3679 245.609 82.7482 248.981C84.221 252.669 86.0814 256.206 88.3012 259.54C90.814 263.382 94.1231 266.697 98.0269 269.284C102.12 272.075 107.642 272.829 113.012 272.112C113.695 272.049 114.373 271.948 115.043 271.811C115.717 271.682 116.399 271.584 117.074 271.426C118.414 271.071 119.787 270.8 121.119 270.347L123.134 269.714C123.801 269.48 124.459 269.224 125.133 268.96C125.808 268.696 126.474 268.469 127.133 268.205L129.108 267.353C135.888 264.317 142.383 260.734 148.52 256.643L148.408 256.885C147.322 250.685 146.282 244.817 145.346 239.455L145.616 239.636L116.844 244.576C114.99 245.199 113.359 246.307 112.139 247.774C111.245 248.864 110.646 250.146 110.394 251.507C110.282 252.003 110.218 252.508 110.204 253.016C110.172 253.375 110.172 253.735 110.204 254.094C110.204 254.373 110.204 254.592 110.204 254.758C110.231 254.821 110.249 254.887 110.259 254.954Z" fill="#263238"/>
<path d="M116.834 244.44C116.755 244.243 116.701 244.038 116.675 243.829C116.588 243.422 116.469 242.826 116.278 242.064C115.772 239.913 114.972 237.834 113.898 235.88C112.542 233.421 110.107 230.985 107.711 228.044C106.45 226.501 105.385 224.823 104.538 223.043C103.655 221.128 102.905 219.161 102.293 217.153C101.724 215.154 101.035 213.187 100.23 211.263C99.423 209.494 98.4736 207.787 97.3901 206.157C96.4311 204.674 95.3346 203.276 94.1139 201.978C93.0537 200.862 91.7295 200.001 90.2506 199.467C88.0877 198.69 85.7753 198.361 83.468 198.501C81.8338 198.614 80.9532 198.878 80.9453 198.826C81.1461 198.739 81.3562 198.673 81.572 198.63C82.1946 198.48 82.8285 198.377 83.468 198.32C85.8147 198.097 88.1841 198.378 90.4013 199.142C91.9507 199.673 93.3417 200.553 94.455 201.707C95.7099 203.013 96.8383 204.424 97.8264 205.923C98.9343 207.565 99.9051 209.287 100.73 211.074C101.549 213.015 102.248 214.999 102.824 217.017C103.425 219.008 104.164 220.958 105.037 222.855C105.874 224.605 106.92 226.257 108.155 227.78C110.535 230.706 112.915 233.18 114.287 235.729C115.337 237.723 116.085 239.848 116.508 242.042C116.667 242.796 116.754 243.414 116.81 243.829C116.838 244.032 116.846 244.236 116.834 244.44V244.44Z" fill="#263238"/>
<path d="M73.6537 209.966C73.5109 209.966 73.6537 208.586 73.9393 206.949C74.2248 205.313 74.6136 203.978 74.7325 204C74.8515 204.023 74.7325 205.388 74.439 207.017C74.1455 208.646 73.7965 209.996 73.6537 209.966Z" fill="#FAFAFA"/>
<path d="M91.4024 206.466C91.4024 206.601 89.9825 206.873 88.2293 207.069C86.4761 207.265 84.9847 207.303 84.9689 207.167C84.953 207.031 86.3809 206.752 88.142 206.564C89.9031 206.375 91.4024 206.322 91.4024 206.466Z" fill="#FAFAFA"/>
<path d="M81.4358 226.482C81.2851 226.482 80.9202 224.974 80.6028 223.096C80.2855 221.218 80.1586 219.649 80.3093 219.634C80.4601 219.619 80.825 221.142 81.1026 223.013C81.3803 224.883 81.5786 226.459 81.4358 226.482Z" fill="#FAFAFA"/>
<path d="M99.1507 223.85C99.1507 223.986 97.5641 224.024 95.7237 223.926C93.8832 223.828 92.3046 223.639 92.3125 223.496C92.3205 223.353 93.8594 223.322 95.7475 223.42C97.6355 223.518 99.1586 223.707 99.1507 223.85Z" fill="#FAFAFA"/>
<path d="M89.3942 241.076C89.2594 241.023 89.7274 239.53 90.4493 237.735C91.1712 235.94 91.8614 234.53 91.9962 234.582C92.1311 234.635 91.671 236.129 90.9491 237.924C90.2272 239.719 89.537 241.129 89.3942 241.076Z" fill="#FAFAFA"/>
<path d="M106.918 240.556C106.791 240.623 105.871 239.304 105.149 237.478C104.427 235.653 104.189 234.084 104.355 234.062C104.522 234.039 104.966 235.517 105.68 237.297C106.394 239.077 107.053 240.465 106.918 240.556Z" fill="#FAFAFA"/>
<path d="M99.1442 252.692C99.0887 252.82 97.9226 252.518 96.5343 252.005C95.1461 251.493 94.0672 250.972 94.1148 250.844C94.1624 250.716 95.3365 251.017 96.7247 251.53C98.113 252.043 99.1918 252.556 99.1442 252.692Z" fill="#FAFAFA"/>
<path d="M104.697 265.829C104.617 265.957 102.944 265.075 100.81 264.17C98.6757 263.265 96.8908 262.661 96.9384 262.495C96.986 262.329 98.8661 262.767 101.032 263.71C103.197 264.652 104.776 265.723 104.697 265.829Z" fill="#FAFAFA"/>
<path d="M118.152 261.063C118.263 261.153 117.144 262.45 115.661 263.951C114.177 265.452 112.892 266.591 112.781 266.493C112.67 266.395 113.789 265.105 115.272 263.604C116.755 262.103 118.048 260.964 118.152 261.063Z" fill="#FAFAFA"/>
<path d="M119.649 252.487C119.506 252.555 118.808 251.348 117.698 250.051C116.587 248.754 115.508 247.849 115.604 247.728C115.699 247.608 116.968 248.369 118.118 249.734C119.268 251.1 119.776 252.442 119.649 252.487Z" fill="#FAFAFA"/>
<path d="M127.788 256.869C127.645 256.809 128.209 255.361 128.764 253.611C129.319 251.861 129.676 250.353 129.827 250.375C129.978 250.398 129.827 251.936 129.279 253.754C128.732 255.572 127.891 256.929 127.788 256.869Z" fill="#FAFAFA"/>
<path d="M138.878 245.979C138.878 246.122 137.204 246.114 135.165 245.979C133.127 245.843 131.476 245.601 131.484 245.458C131.492 245.315 133.166 245.322 135.205 245.458C137.244 245.594 138.894 245.835 138.878 245.979Z" fill="#FAFAFA"/>
<path d="M138.998 257.323C139.062 257.451 137.665 258.167 135.888 258.914C134.111 259.661 132.628 260.166 132.565 260.038C132.501 259.91 133.897 259.193 135.674 258.446C137.451 257.7 138.998 257.194 138.998 257.323Z" fill="#FAFAFA"/>
<path d="M41.8837 300.968C41.7329 300.968 41.8837 299.46 42.1692 297.68C42.4548 295.9 42.8435 294.444 42.9625 294.467C43.0815 294.49 42.9625 295.975 42.6769 297.763C42.3914 299.55 42.0264 300.991 41.8837 300.968Z" fill="#FAFAFA"/>
<path d="M35.5766 307.68C35.529 307.816 33.9186 307.409 31.983 306.775C30.0474 306.142 28.5084 305.523 28.564 305.387C28.6195 305.252 30.2219 305.659 32.1576 306.292C34.0932 306.926 35.6242 307.537 35.5766 307.68Z" fill="#FAFAFA"/>
<path d="M30.3199 310.961C30.4706 310.961 30.2723 312.696 29.8836 314.785C29.4949 316.874 29.0903 318.556 28.9158 318.556C28.7413 318.556 28.9634 316.814 29.3521 314.725C29.7408 312.635 30.1454 310.939 30.3199 310.961Z" fill="#FAFAFA"/>
<path d="M30.0635 285.175C30.1666 285.288 28.8974 286.404 27.4695 287.89C26.0416 289.376 24.9706 290.665 24.8437 290.583C24.7168 290.5 25.637 289.074 27.0728 287.566C28.5087 286.057 29.9762 285.054 30.0635 285.175Z" fill="#FAFAFA"/>
<path d="M63.7002 274.494C63.7795 274.6 62.2168 275.603 59.9956 276.131C57.7744 276.659 55.9022 276.516 55.9181 276.388C55.9339 276.259 57.7268 276.169 59.8845 275.633C62.0422 275.098 63.6367 274.351 63.7002 274.494Z" fill="#FAFAFA"/>
<path d="M159.182 6C145.711 6 135.38 13.1576 128.5 23.8091C121.619 13.1557 111.287 6 97.8182 6C87.3819 6 77.8595 10.1636 71.006 17.7237C64.5538 24.8419 61 34.3477 61 44.4907C61 55.5196 65.3765 65.7156 74.7725 76.5787C83.0107 86.103 94.8375 95.9008 108.532 107.246C113.595 111.441 118.831 115.778 124.395 120.511C125.562 121.504 127.031 122 128.5 122C129.969 122 131.438 121.504 132.605 120.511C138.169 115.778 143.404 111.441 148.468 107.246C162.162 95.9008 173.989 86.1026 182.228 76.5783C191.624 65.716 196 55.5196 196 44.4907C196 23.7511 180.967 6 159.182 6V6Z" fill="url(#paint1_linear)"/>
<path d="M99.9814 50.2563C102.64 50.2563 104.259 48.6816 104.259 46.3599V39.4312H102.618V46.2354C102.618 47.7661 101.666 48.8062 99.9814 48.8062C98.2969 48.8062 97.3374 47.7661 97.3374 46.2354V39.4312H95.6968V46.3599C95.6968 48.6816 97.3301 50.2563 99.9814 50.2563ZM106.72 50H108.309V45.3345C108.309 44.0527 109.034 43.2544 110.199 43.2544C111.363 43.2544 111.913 43.9062 111.913 45.2246V50H113.495V44.8511C113.495 42.9541 112.513 41.8921 110.733 41.8921C109.576 41.8921 108.814 42.4048 108.426 43.2544H108.309V42.0459H106.72V50ZM115.787 50H117.376V38.9258H115.787V50ZM120.57 40.625C121.112 40.625 121.566 40.1782 121.566 39.6362C121.566 39.0869 121.112 38.6401 120.57 38.6401C120.021 38.6401 119.574 39.0869 119.574 39.6362C119.574 40.1782 120.021 40.625 120.57 40.625ZM119.771 50H121.354V42.0459H119.771V50ZM123.668 50H125.257V45.1147C125.257 44.0747 125.968 43.2544 126.927 43.2544C127.865 43.2544 128.458 43.8257 128.458 44.7339V50H130.04V44.9683C130.04 44.0088 130.707 43.2544 131.717 43.2544C132.757 43.2544 133.255 43.7964 133.255 44.895V50H134.837V44.5142C134.837 42.8589 133.9 41.8921 132.296 41.8921C131.19 41.8921 130.274 42.4561 129.872 43.313H129.747C129.396 42.4561 128.626 41.8921 127.542 41.8921C126.502 41.8921 125.726 42.3975 125.375 43.269H125.257V42.0459H123.668V50ZM137.884 40.625C138.426 40.625 138.88 40.1782 138.88 39.6362C138.88 39.0869 138.426 38.6401 137.884 38.6401C137.335 38.6401 136.888 39.0869 136.888 39.6362C136.888 40.1782 137.335 40.625 137.884 40.625ZM137.086 50H138.668V42.0459H137.086V50ZM143.985 50.0513C144.293 50.0513 144.586 50.0146 144.842 49.9707V48.7036C144.623 48.7256 144.483 48.7329 144.242 48.7329C143.458 48.7329 143.136 48.3813 143.136 47.5244V43.2983H144.842V42.0459H143.136V40.0391H141.517V42.0459H140.272V43.2983H141.517V47.9053C141.517 49.436 142.235 50.0513 143.985 50.0513ZM149.947 50.1538C151.983 50.1538 153.082 48.9819 153.346 47.9346L153.36 47.8687L151.83 47.876L151.8 47.9346C151.61 48.3447 151.002 48.8501 149.984 48.8501C148.673 48.8501 147.838 47.9639 147.809 46.4404H153.448V45.8838C153.448 43.4961 152.086 41.8921 149.867 41.8921C147.647 41.8921 146.212 43.5547 146.212 46.0376V46.0449C146.212 48.5645 147.618 50.1538 149.947 50.1538ZM149.874 43.1958C150.951 43.1958 151.749 43.8843 151.874 45.3052H147.831C147.97 43.9355 148.79 43.1958 149.874 43.1958ZM158.238 50.1318C159.352 50.1318 160.223 49.6191 160.685 48.7476H160.809V50H162.391V38.9258H160.809V43.3057H160.685C160.26 42.4487 159.33 41.9067 158.238 41.9067C156.217 41.9067 154.942 43.4961 154.942 46.0156V46.0303C154.942 48.5278 156.239 50.1318 158.238 50.1318ZM158.692 48.7769C157.359 48.7769 156.561 47.7368 156.561 46.0303V46.0156C156.561 44.3091 157.359 43.269 158.692 43.269C160.011 43.269 160.831 44.3164 160.831 46.0156V46.0303C160.831 47.7295 160.018 48.7769 158.692 48.7769ZM76.6392 68H78.2285V63.1147C78.2285 62.0747 78.939 61.2544 79.8984 61.2544C80.8359 61.2544 81.4292 61.8257 81.4292 62.7339V68H83.0112V62.9683C83.0112 62.0088 83.6777 61.2544 84.6885 61.2544C85.7285 61.2544 86.2266 61.7964 86.2266 62.895V68H87.8086V62.5142C87.8086 60.8589 86.8711 59.8921 85.2671 59.8921C84.1611 59.8921 83.2456 60.4561 82.8428 61.313H82.7183C82.3667 60.4561 81.5977 59.8921 80.5137 59.8921C79.4736 59.8921 78.6973 60.3975 78.3457 61.269H78.2285V60.0459H76.6392V68ZM93.3677 68.1538C95.4038 68.1538 96.5024 66.9819 96.7661 65.9346L96.7808 65.8687L95.25 65.876L95.2207 65.9346C95.0303 66.3447 94.4224 66.8501 93.4043 66.8501C92.0933 66.8501 91.2583 65.9639 91.229 64.4404H96.8687V63.8838C96.8687 61.4961 95.5063 59.8921 93.2871 59.8921C91.0679 59.8921 89.6323 61.5547 89.6323 64.0376V64.0449C89.6323 66.5645 91.0386 68.1538 93.3677 68.1538ZM93.2944 61.1958C94.3711 61.1958 95.1694 61.8843 95.2939 63.3052H91.251C91.3901 61.9355 92.2104 61.1958 93.2944 61.1958ZM100.941 68.1318C101.996 68.1318 102.831 67.6777 103.299 66.8721H103.424V68H104.999V62.5581C104.999 60.8882 103.871 59.8921 101.871 59.8921C100.062 59.8921 98.8096 60.7637 98.6191 62.0674L98.6118 62.1187H100.143L100.15 62.0894C100.34 61.5254 100.919 61.2031 101.798 61.2031C102.875 61.2031 103.424 61.6865 103.424 62.5581V63.2612L101.271 63.3857C99.3735 63.5029 98.3042 64.3306 98.3042 65.7515V65.7661C98.3042 67.209 99.4248 68.1318 100.941 68.1318ZM99.8862 65.7002V65.6855C99.8862 64.9678 100.384 64.5723 101.483 64.5063L103.424 64.3818V65.063C103.424 66.0884 102.552 66.8647 101.366 66.8647C100.509 66.8647 99.8862 66.4326 99.8862 65.7002ZM110.133 68.1538C112.022 68.1538 113.429 67.1504 113.429 65.6782V65.6636C113.429 64.5137 112.696 63.8618 111.166 63.5029L109.906 63.2173C109.012 63.0049 108.646 62.6973 108.646 62.1992V62.1846C108.646 61.5474 109.276 61.1152 110.147 61.1152C111.041 61.1152 111.605 61.5327 111.759 62.0894V62.104H113.275V62.0967C113.136 60.8003 111.971 59.8921 110.155 59.8921C108.353 59.8921 107.064 60.8882 107.064 62.2725V62.2798C107.064 63.4443 107.76 64.1255 109.261 64.4697L110.528 64.7627C111.451 64.9751 111.825 65.312 111.825 65.8101V65.8247C111.825 66.4766 111.144 66.9233 110.162 66.9233C109.217 66.9233 108.639 66.5205 108.441 65.9199L108.434 65.9126H106.844V65.9199C106.998 67.2529 108.214 68.1538 110.133 68.1538ZM117.977 68.1538C119.134 68.1538 119.94 67.6558 120.321 66.7988H120.445V68H122.027V60.0459H120.445V64.7114C120.445 65.9932 119.764 66.7915 118.49 66.7915C117.325 66.7915 116.842 66.1396 116.842 64.8213V60.0459H115.252V65.1948C115.252 67.0771 116.183 68.1538 117.977 68.1538ZM124.32 68H125.909V63.2466C125.909 62.0967 126.737 61.3496 127.953 61.3496C128.253 61.3496 128.524 61.3862 128.81 61.4448V59.98C128.648 59.9434 128.37 59.9067 128.114 59.9067C127.052 59.9067 126.312 60.4048 126.026 61.2471H125.909V60.0459H124.32V68ZM133.46 68.1538C135.497 68.1538 136.595 66.9819 136.859 65.9346L136.874 65.8687L135.343 65.876L135.313 65.9346C135.123 66.3447 134.515 66.8501 133.497 66.8501C132.186 66.8501 131.351 65.9639 131.322 64.4404H136.961V63.8838C136.961 61.4961 135.599 59.8921 133.38 59.8921C131.161 59.8921 129.725 61.5547 129.725 64.0376V64.0449C129.725 66.5645 131.131 68.1538 133.46 68.1538ZM133.387 61.1958C134.464 61.1958 135.262 61.8843 135.387 63.3052H131.344C131.483 61.9355 132.303 61.1958 133.387 61.1958ZM138.851 68H140.44V63.1147C140.44 62.0747 141.151 61.2544 142.11 61.2544C143.048 61.2544 143.641 61.8257 143.641 62.7339V68H145.223V62.9683C145.223 62.0088 145.89 61.2544 146.9 61.2544C147.94 61.2544 148.438 61.7964 148.438 62.895V68H150.021V62.5142C150.021 60.8589 149.083 59.8921 147.479 59.8921C146.373 59.8921 145.458 60.4561 145.055 61.313H144.93C144.579 60.4561 143.81 59.8921 142.726 59.8921C141.686 59.8921 140.909 60.3975 140.558 61.269H140.44V60.0459H138.851V68ZM155.58 68.1538C157.616 68.1538 158.714 66.9819 158.978 65.9346L158.993 65.8687L157.462 65.876L157.433 65.9346C157.242 66.3447 156.634 66.8501 155.616 66.8501C154.305 66.8501 153.47 65.9639 153.441 64.4404H159.081V63.8838C159.081 61.4961 157.718 59.8921 155.499 59.8921C153.28 59.8921 151.844 61.5547 151.844 64.0376V64.0449C151.844 66.5645 153.25 68.1538 155.58 68.1538ZM155.506 61.1958C156.583 61.1958 157.381 61.8843 157.506 63.3052H153.463C153.602 61.9355 154.422 61.1958 155.506 61.1958ZM160.97 68H162.56V63.3345C162.56 62.0527 163.285 61.2544 164.449 61.2544C165.614 61.2544 166.163 61.9062 166.163 63.2246V68H167.745V62.8511C167.745 60.9541 166.764 59.8921 164.984 59.8921C163.827 59.8921 163.065 60.4048 162.677 61.2544H162.56V60.0459H160.97V68ZM172.967 68.0513C173.275 68.0513 173.568 68.0146 173.824 67.9707V66.7036C173.604 66.7256 173.465 66.7329 173.224 66.7329C172.44 66.7329 172.118 66.3813 172.118 65.5244V61.2983H173.824V60.0459H172.118V58.0391H170.499V60.0459H169.254V61.2983H170.499V65.9053C170.499 67.436 171.217 68.0513 172.967 68.0513ZM178.453 68.1538C180.343 68.1538 181.749 67.1504 181.749 65.6782V65.6636C181.749 64.5137 181.017 63.8618 179.486 63.5029L178.226 63.2173C177.333 63.0049 176.966 62.6973 176.966 62.1992V62.1846C176.966 61.5474 177.596 61.1152 178.468 61.1152C179.361 61.1152 179.925 61.5327 180.079 62.0894V62.104H181.595V62.0967C181.456 60.8003 180.292 59.8921 178.475 59.8921C176.673 59.8921 175.384 60.8882 175.384 62.2725V62.2798C175.384 63.4443 176.08 64.1255 177.582 64.4697L178.849 64.7627C179.771 64.9751 180.145 65.312 180.145 65.8101V65.8247C180.145 66.4766 179.464 66.9233 178.482 66.9233C177.538 66.9233 176.959 66.5205 176.761 65.9199L176.754 65.9126H175.165V65.9199C175.318 67.2529 176.534 68.1538 178.453 68.1538Z" fill="#FF6A89"/>
<path d="M309.273 78C297.299 78 288.115 84.3554 282 93.8132C275.884 84.3537 266.699 78 254.727 78C245.451 78 236.986 81.697 230.894 88.4099C225.159 94.7303 222 103.171 222 112.177C222 121.97 225.89 131.023 234.242 140.669C241.565 149.126 252.078 157.826 264.251 167.9C268.751 171.624 273.405 175.475 278.351 179.678C279.388 180.56 280.694 181 282 181C283.306 181 284.612 180.559 285.649 179.678C290.595 175.475 295.248 171.624 299.749 167.899C311.922 157.826 322.435 149.126 329.758 140.669C338.11 131.024 342 121.97 342 112.177C342 93.7617 328.637 78 309.273 78V78Z" fill="url(#paint2_linear)"/>
<path d="M239.717 117H241.211V109.244H241.329L244.427 117H245.643L248.748 109.244H248.858V117H250.352V106.431H248.462L245.093 114.861H244.976L241.607 106.431H239.717V117ZM255.003 117.132C256.058 117.132 256.893 116.678 257.361 115.872H257.486V117H259.061V111.558C259.061 109.888 257.933 108.892 255.933 108.892C254.124 108.892 252.872 109.764 252.681 111.067L252.674 111.119H254.205L254.212 111.089C254.402 110.525 254.981 110.203 255.86 110.203C256.937 110.203 257.486 110.687 257.486 111.558V112.261L255.333 112.386C253.436 112.503 252.366 113.331 252.366 114.751V114.766C252.366 116.209 253.487 117.132 255.003 117.132ZM253.948 114.7V114.686C253.948 113.968 254.446 113.572 255.545 113.506L257.486 113.382V114.063C257.486 115.088 256.614 115.865 255.428 115.865C254.571 115.865 253.948 115.433 253.948 114.7ZM261.375 117H262.964V114.107L263.646 113.426L266.385 117H268.318L264.781 112.4L268.099 109.046H266.238L263.082 112.4H262.964V105.926H261.375V117ZM272.698 117.154C274.734 117.154 275.833 115.982 276.097 114.935L276.111 114.869L274.581 114.876L274.551 114.935C274.361 115.345 273.753 115.85 272.735 115.85C271.424 115.85 270.589 114.964 270.56 113.44H276.199V112.884C276.199 110.496 274.837 108.892 272.618 108.892C270.398 108.892 268.963 110.555 268.963 113.038V113.045C268.963 115.564 270.369 117.154 272.698 117.154ZM272.625 110.196C273.702 110.196 274.5 110.884 274.625 112.305H270.582C270.721 110.936 271.541 110.196 272.625 110.196ZM282.19 117H283.78V112.334C283.78 111.053 284.505 110.254 285.669 110.254C286.834 110.254 287.383 110.906 287.383 112.225V117H288.965V111.851C288.965 109.954 287.984 108.892 286.204 108.892C285.047 108.892 284.285 109.405 283.897 110.254H283.78V109.046H282.19V117ZM294.554 117.154C296.883 117.154 298.311 115.594 298.311 113.03V113.016C298.311 110.452 296.875 108.892 294.554 108.892C292.225 108.892 290.789 110.459 290.789 113.016V113.03C290.789 115.594 292.217 117.154 294.554 117.154ZM294.554 115.828C293.184 115.828 292.415 114.795 292.415 113.03V113.016C292.415 111.25 293.184 110.218 294.554 110.218C295.916 110.218 296.692 111.25 296.692 113.016V113.03C296.692 114.788 295.916 115.828 294.554 115.828ZM303.211 117.051C303.519 117.051 303.812 117.015 304.068 116.971V115.704C303.848 115.726 303.709 115.733 303.467 115.733C302.684 115.733 302.361 115.381 302.361 114.524V110.298H304.068V109.046H302.361V107.039H300.743V109.046H299.498V110.298H300.743V114.905C300.743 116.436 301.46 117.051 303.211 117.051ZM309.173 117.154C311.209 117.154 312.308 115.982 312.571 114.935L312.586 114.869L311.055 114.876L311.026 114.935C310.835 115.345 310.228 115.85 309.209 115.85C307.898 115.85 307.063 114.964 307.034 113.44H312.674V112.884C312.674 110.496 311.312 108.892 309.092 108.892C306.873 108.892 305.438 110.555 305.438 113.038V113.045C305.438 115.564 306.844 117.154 309.173 117.154ZM309.1 110.196C310.176 110.196 310.975 110.884 311.099 112.305H307.056C307.195 110.936 308.016 110.196 309.1 110.196ZM317.457 117.154C319.346 117.154 320.752 116.15 320.752 114.678V114.664C320.752 113.514 320.02 112.862 318.489 112.503L317.229 112.217C316.336 112.005 315.97 111.697 315.97 111.199V111.185C315.97 110.547 316.6 110.115 317.471 110.115C318.365 110.115 318.929 110.533 319.083 111.089V111.104H320.599V111.097C320.459 109.8 319.295 108.892 317.479 108.892C315.677 108.892 314.388 109.888 314.388 111.272V111.28C314.388 112.444 315.083 113.125 316.585 113.47L317.852 113.763C318.775 113.975 319.148 114.312 319.148 114.81V114.825C319.148 115.477 318.467 115.923 317.486 115.923C316.541 115.923 315.962 115.521 315.765 114.92L315.757 114.913H314.168V114.92C314.322 116.253 315.538 117.154 317.457 117.154ZM239.065 135.132C240.12 135.132 240.955 134.678 241.424 133.872H241.548V135H243.123V129.558C243.123 127.888 241.995 126.892 239.996 126.892C238.187 126.892 236.934 127.764 236.744 129.067L236.736 129.119H238.267L238.274 129.089C238.465 128.525 239.043 128.203 239.922 128.203C240.999 128.203 241.548 128.687 241.548 129.558V130.261L239.395 130.386C237.498 130.503 236.429 131.331 236.429 132.751V132.766C236.429 134.209 237.549 135.132 239.065 135.132ZM238.011 132.7V132.686C238.011 131.968 238.509 131.572 239.607 131.506L241.548 131.382V132.063C241.548 133.088 240.677 133.865 239.49 133.865C238.633 133.865 238.011 133.433 238.011 132.7ZM245.364 135H246.954V130.334C246.954 129.053 247.679 128.254 248.843 128.254C250.008 128.254 250.557 128.906 250.557 130.225V135H252.139V129.851C252.139 127.954 251.158 126.892 249.378 126.892C248.221 126.892 247.459 127.405 247.071 128.254H246.954V127.046H245.364V135ZM257.259 135.132C258.372 135.132 259.244 134.619 259.705 133.748H259.83V135H261.412V123.926H259.83V128.306H259.705C259.28 127.449 258.35 126.907 257.259 126.907C255.237 126.907 253.963 128.496 253.963 131.016V131.03C253.963 133.528 255.259 135.132 257.259 135.132ZM257.713 133.777C256.38 133.777 255.582 132.737 255.582 131.03V131.016C255.582 129.309 256.38 128.269 257.713 128.269C259.031 128.269 259.852 129.316 259.852 131.016V131.03C259.852 132.729 259.039 133.777 257.713 133.777ZM270.53 135.154C271.688 135.154 272.493 134.656 272.874 133.799H272.999V135H274.581V127.046H272.999V131.711C272.999 132.993 272.317 133.792 271.043 133.792C269.878 133.792 269.395 133.14 269.395 131.821V127.046H267.806V132.195C267.806 134.077 268.736 135.154 270.53 135.154ZM279.766 135.154C281.656 135.154 283.062 134.15 283.062 132.678V132.664C283.062 131.514 282.33 130.862 280.799 130.503L279.539 130.217C278.646 130.005 278.279 129.697 278.279 129.199V129.185C278.279 128.547 278.909 128.115 279.781 128.115C280.674 128.115 281.238 128.533 281.392 129.089V129.104H282.908V129.097C282.769 127.8 281.604 126.892 279.788 126.892C277.986 126.892 276.697 127.888 276.697 129.272V129.28C276.697 130.444 277.393 131.125 278.895 131.47L280.162 131.763C281.084 131.975 281.458 132.312 281.458 132.81V132.825C281.458 133.477 280.777 133.923 279.795 133.923C278.851 133.923 278.272 133.521 278.074 132.92L278.067 132.913H276.478V132.92C276.631 134.253 277.847 135.154 279.766 135.154ZM288.299 135.154C290.335 135.154 291.434 133.982 291.697 132.935L291.712 132.869L290.181 132.876L290.152 132.935C289.961 133.345 289.354 133.85 288.335 133.85C287.024 133.85 286.189 132.964 286.16 131.44H291.8V130.884C291.8 128.496 290.438 126.892 288.218 126.892C285.999 126.892 284.563 128.555 284.563 131.038V131.045C284.563 133.564 285.97 135.154 288.299 135.154ZM288.226 128.196C289.302 128.196 290.101 128.884 290.225 130.305H286.182C286.321 128.936 287.142 128.196 288.226 128.196ZM300.794 135.051C301.102 135.051 301.395 135.015 301.651 134.971V133.704C301.431 133.726 301.292 133.733 301.05 133.733C300.267 133.733 299.944 133.381 299.944 132.524V128.298H301.651V127.046H299.944V125.039H298.326V127.046H297.081V128.298H298.326V132.905C298.326 134.436 299.043 135.051 300.794 135.051ZM305.687 135.132C306.741 135.132 307.576 134.678 308.045 133.872H308.169V135H309.744V129.558C309.744 127.888 308.616 126.892 306.617 126.892C304.808 126.892 303.555 127.764 303.365 129.067L303.357 129.119H304.888L304.896 129.089C305.086 128.525 305.665 128.203 306.543 128.203C307.62 128.203 308.169 128.687 308.169 129.558V130.261L306.016 130.386C304.119 130.503 303.05 131.331 303.05 132.751V132.766C303.05 134.209 304.17 135.132 305.687 135.132ZM304.632 132.7V132.686C304.632 131.968 305.13 131.572 306.229 131.506L308.169 131.382V132.063C308.169 133.088 307.298 133.865 306.111 133.865C305.254 133.865 304.632 133.433 304.632 132.7ZM315.347 137.805C317.603 137.805 319.031 136.648 319.031 134.839V127.046H317.449V128.35H317.354C316.893 127.456 316.028 126.907 314.915 126.907C312.85 126.907 311.583 128.511 311.583 130.781V130.796C311.583 133.037 312.842 134.612 314.886 134.612C315.977 134.612 316.856 134.128 317.339 133.264H317.457V134.832C317.457 135.916 316.68 136.531 315.369 136.531C314.292 136.531 313.648 136.143 313.516 135.593L313.509 135.579H311.905L311.89 135.593C312.081 136.919 313.326 137.805 315.347 137.805ZM315.325 133.301C313.97 133.301 313.208 132.268 313.208 130.789V130.774C313.208 129.294 313.97 128.254 315.325 128.254C316.666 128.254 317.486 129.294 317.486 130.774V130.789C317.486 132.275 316.673 133.301 315.325 133.301ZM324.209 135.154C326.099 135.154 327.505 134.15 327.505 132.678V132.664C327.505 131.514 326.773 130.862 325.242 130.503L323.982 130.217C323.089 130.005 322.723 129.697 322.723 129.199V129.185C322.723 128.547 323.353 128.115 324.224 128.115C325.118 128.115 325.682 128.533 325.835 129.089V129.104H327.352V129.097C327.212 127.8 326.048 126.892 324.231 126.892C322.43 126.892 321.141 127.888 321.141 129.272V129.28C321.141 130.444 321.836 131.125 323.338 131.47L324.605 131.763C325.528 131.975 325.901 132.312 325.901 132.81V132.825C325.901 133.477 325.22 133.923 324.239 133.923C323.294 133.923 322.715 133.521 322.518 132.92L322.51 132.913H320.921V132.92C321.075 134.253 322.291 135.154 324.209 135.154Z" fill="#FF6A89"/>
<path d="M322.636 235C312.259 235 304.3 240.492 299 248.664C293.699 240.49 285.739 235 275.364 235C267.324 235 259.988 238.195 254.708 243.995C249.738 249.456 247 256.75 247 264.532C247 272.994 250.371 280.816 257.61 289.151C263.956 296.458 273.067 303.976 283.617 312.68C287.518 315.899 291.551 319.226 295.837 322.858C296.737 323.619 297.868 324 299 324C300.132 324 301.263 323.619 302.163 322.858C306.449 319.226 310.482 315.898 314.383 312.68C324.933 303.976 334.044 296.458 340.39 289.151C347.629 280.817 351 272.994 351 264.532C351 248.619 339.419 235 322.636 235V235Z" fill="url(#paint3_linear)"/>
<path d="M255.062 273.617H256.556V265.861H256.673L259.771 273.617H260.987L264.093 265.861H264.203V273.617H265.697V263.048H263.807L260.438 271.479H260.321L256.952 263.048H255.062V273.617ZM271.505 273.771C273.541 273.771 274.64 272.599 274.903 271.552L274.918 271.486L273.387 271.493L273.358 271.552C273.167 271.962 272.56 272.467 271.542 272.467C270.23 272.467 269.396 271.581 269.366 270.058H275.006V269.501C275.006 267.113 273.644 265.509 271.424 265.509C269.205 265.509 267.77 267.172 267.77 269.655V269.662C267.77 272.182 269.176 273.771 271.505 273.771ZM271.432 266.813C272.508 266.813 273.307 267.501 273.431 268.922H269.388C269.527 267.553 270.348 266.813 271.432 266.813ZM279.078 273.749C280.133 273.749 280.968 273.295 281.437 272.489H281.561V273.617H283.136V268.175C283.136 266.505 282.008 265.509 280.008 265.509C278.199 265.509 276.947 266.381 276.756 267.685L276.749 267.736H278.28L278.287 267.707C278.478 267.143 279.056 266.82 279.935 266.82C281.012 266.82 281.561 267.304 281.561 268.175V268.878L279.408 269.003C277.511 269.12 276.441 269.948 276.441 271.369V271.383C276.441 272.826 277.562 273.749 279.078 273.749ZM278.023 271.317V271.303C278.023 270.585 278.521 270.189 279.62 270.124L281.561 269.999V270.68C281.561 271.706 280.689 272.482 279.503 272.482C278.646 272.482 278.023 272.05 278.023 271.317ZM288.27 273.771C290.16 273.771 291.566 272.768 291.566 271.295V271.281C291.566 270.131 290.833 269.479 289.303 269.12L288.043 268.834C287.149 268.622 286.783 268.314 286.783 267.816V267.802C286.783 267.165 287.413 266.732 288.285 266.732C289.178 266.732 289.742 267.15 289.896 267.707V267.721H291.412V267.714C291.273 266.417 290.108 265.509 288.292 265.509C286.49 265.509 285.201 266.505 285.201 267.89V267.897C285.201 269.062 285.897 269.743 287.398 270.087L288.666 270.38C289.588 270.592 289.962 270.929 289.962 271.427V271.442C289.962 272.094 289.281 272.541 288.299 272.541C287.354 272.541 286.776 272.138 286.578 271.537L286.571 271.53H284.981V271.537C285.135 272.87 286.351 273.771 288.27 273.771ZM296.114 273.771C297.271 273.771 298.077 273.273 298.458 272.416H298.583V273.617H300.165V265.663H298.583V270.329C298.583 271.61 297.901 272.409 296.627 272.409C295.462 272.409 294.979 271.757 294.979 270.438V265.663H293.39V270.812C293.39 272.694 294.32 273.771 296.114 273.771ZM302.457 273.617H304.046V268.864C304.046 267.714 304.874 266.967 306.09 266.967C306.39 266.967 306.661 267.003 306.947 267.062V265.597C306.786 265.561 306.507 265.524 306.251 265.524C305.189 265.524 304.449 266.022 304.164 266.864H304.046V265.663H302.457V273.617ZM308.58 273.617H310.169V268.732C310.169 267.692 310.88 266.872 311.839 266.872C312.777 266.872 313.37 267.443 313.37 268.351V273.617H314.952V268.585C314.952 267.626 315.619 266.872 316.629 266.872C317.669 266.872 318.167 267.414 318.167 268.512V273.617H319.75V268.131C319.75 266.476 318.812 265.509 317.208 265.509C316.102 265.509 315.187 266.073 314.784 266.93H314.659C314.308 266.073 313.539 265.509 312.455 265.509C311.415 265.509 310.638 266.015 310.287 266.886H310.169V265.663H308.58V273.617ZM325.309 273.771C327.345 273.771 328.443 272.599 328.707 271.552L328.722 271.486L327.191 271.493L327.162 271.552C326.971 271.962 326.363 272.467 325.345 272.467C324.034 272.467 323.199 271.581 323.17 270.058H328.81V269.501C328.81 267.113 327.447 265.509 325.228 265.509C323.009 265.509 321.573 267.172 321.573 269.655V269.662C321.573 272.182 322.979 273.771 325.309 273.771ZM325.235 266.813C326.312 266.813 327.11 267.501 327.235 268.922H323.192C323.331 267.553 324.151 266.813 325.235 266.813ZM330.699 273.617H332.289V268.952C332.289 267.67 333.014 266.872 334.178 266.872C335.343 266.872 335.892 267.523 335.892 268.842V273.617H337.474V268.468C337.474 266.571 336.493 265.509 334.713 265.509C333.556 265.509 332.794 266.022 332.406 266.872H332.289V265.663H330.699V273.617ZM342.696 273.668C343.004 273.668 343.297 273.632 343.553 273.588V272.321C343.333 272.343 343.194 272.35 342.953 272.35C342.169 272.35 341.847 271.999 341.847 271.142V266.916H343.553V265.663H341.847V263.656H340.228V265.663H338.983V266.916H340.228V271.522C340.228 273.053 340.946 273.668 342.696 273.668ZM280.389 291.771C282.359 291.771 283.495 290.709 283.78 289.164L283.795 289.098H282.271L282.257 289.134C282 289.991 281.385 290.445 280.389 290.445C279.078 290.445 278.265 289.376 278.265 287.618V287.604C278.265 285.89 279.063 284.835 280.389 284.835C281.444 284.835 282.088 285.421 282.264 286.205L282.271 286.227L283.795 286.219V286.183C283.575 284.637 282.381 283.509 280.382 283.509C278.06 283.509 276.646 285.084 276.646 287.604V287.618C276.646 290.189 278.067 291.771 280.389 291.771ZM285.67 291.617H287.259V286.952C287.259 285.67 287.984 284.872 289.149 284.872C290.313 284.872 290.863 285.523 290.863 286.842V291.617H292.445V286.468C292.445 284.571 291.463 283.509 289.684 283.509C288.526 283.509 287.765 284.022 287.376 284.872H287.259V280.543H285.67V291.617ZM296.847 291.749C297.901 291.749 298.736 291.295 299.205 290.489H299.33V291.617H300.904V286.175C300.904 284.505 299.776 283.509 297.777 283.509C295.968 283.509 294.715 284.381 294.525 285.685L294.518 285.736H296.048L296.056 285.707C296.246 285.143 296.825 284.82 297.704 284.82C298.78 284.82 299.33 285.304 299.33 286.175V286.878L297.176 287.003C295.279 287.12 294.21 287.948 294.21 289.369V289.383C294.21 290.826 295.331 291.749 296.847 291.749ZM295.792 289.317V289.303C295.792 288.585 296.29 288.189 297.389 288.124L299.33 287.999V288.68C299.33 289.706 298.458 290.482 297.271 290.482C296.415 290.482 295.792 290.05 295.792 289.317ZM303.146 291.617H304.735V286.864C304.735 285.714 305.562 284.967 306.778 284.967C307.079 284.967 307.35 285.003 307.635 285.062V283.597C307.474 283.561 307.196 283.524 306.939 283.524C305.877 283.524 305.138 284.022 304.852 284.864H304.735V283.663H303.146V291.617ZM312.564 291.668C312.872 291.668 313.165 291.632 313.421 291.588V290.321C313.202 290.343 313.062 290.35 312.821 290.35C312.037 290.35 311.715 289.999 311.715 289.142V284.916H313.421V283.663H311.715V281.656H310.096V283.663H308.851V284.916H310.096V289.522C310.096 291.053 310.814 291.668 312.564 291.668ZM318.05 291.771C319.94 291.771 321.346 290.768 321.346 289.295V289.281C321.346 288.131 320.614 287.479 319.083 287.12L317.823 286.834C316.93 286.622 316.563 286.314 316.563 285.816V285.802C316.563 285.165 317.193 284.732 318.065 284.732C318.958 284.732 319.522 285.15 319.676 285.707V285.721H321.192V285.714C321.053 284.417 319.889 283.509 318.072 283.509C316.271 283.509 314.981 284.505 314.981 285.89V285.897C314.981 287.062 315.677 287.743 317.179 288.087L318.446 288.38C319.369 288.592 319.742 288.929 319.742 289.427V289.442C319.742 290.094 319.061 290.541 318.08 290.541C317.135 290.541 316.556 290.138 316.358 289.537L316.351 289.53H314.762V289.537C314.916 290.87 316.131 291.771 318.05 291.771Z" fill="#FF6A89"/>
</svg>
