<svg width="24" height="24" viewBox="0 0 24 24" fill="none" xmlns="http://www.w3.org/2000/svg">
<g clip-path="url(#clip0)">
<path d="M20.486 3.51445C15.7996 -1.17139 8.20134 -1.17191 3.51445 3.51445C-1.17191 8.20082 -1.17139 15.7991 3.51445 20.486C8.20082 25.1713 15.7991 25.1718 20.486 20.486C25.1718 15.7991 25.1713 8.20134 20.486 3.51445ZM13.5649 17.2177C13.5649 18.0822 12.8642 18.783 11.9997 18.783C11.1351 18.783 10.4344 18.0822 10.4344 17.2177V10.9567C10.4344 10.0922 11.1351 9.39145 11.9997 9.39145C12.8642 9.39145 13.5649 10.0922 13.5649 10.9567V17.2177ZM11.972 8.28117C11.0704 8.28117 10.4694 7.64254 10.4882 6.85418C10.4694 6.02773 11.0704 5.40841 11.9903 5.40841C12.9107 5.40841 13.4929 6.02825 13.5122 6.85418C13.5117 7.64254 12.9112 8.28117 11.972 8.28117Z" fill="#FF6A89"/>
</g>
<defs>
<clipPath id="clip0">
<rect width="24" height="24" fill="white"/>
</clipPath>
</defs>
</svg>
