<svg width="264" height="240" viewBox="0 0 264 240" fill="none" xmlns="http://www.w3.org/2000/svg">
    <defs>
        <filter id="filter0_d" x="69" y="66" width="126" height="116" filterUnits="userSpaceOnUse" color-interpolation-filters="sRGB">
            <feFlood flood-opacity="0" result="BackgroundImageFix"/>
            <feColorMatrix in="SourceAlpha" type="matrix" values="0 0 0 0 0 0 0 0 0 0 0 0 0 0 0 0 0 0 127 0" result="hardAlpha"/>
            <feOffset dy="4"/>
            <feGaussianBlur stdDeviation="4"/>
            <feComposite in2="hardAlpha" operator="out"/>
            <feColorMatrix type="matrix" values="0 0 0 0 0.643137 0 0 0 0 0 0 0 0 0 0.168627 0 0 0 0.25 0"/>
            <feBlend mode="normal" in2="BackgroundImageFix" result="effect1_dropShadow"/>
            <feBlend mode="normal" in="SourceGraphic" in2="effect1_dropShadow" result="shape"/>
        </filter>
        <linearGradient id="paint0_linear" x1="132" y1="240" x2="132" y2="0" gradientUnits="userSpaceOnUse">
            <stop stop-color="#FFC2CC"/>
            <stop offset="1" stop-color="#FFF2F4"/>
        </linearGradient>
        <linearGradient id="paint1_linear" x1="132" y1="200" x2="132" y2="40" gradientUnits="userSpaceOnUse">
            <stop stop-color="#FFC2CC"/>
            <stop offset="1" stop-color="#FFF2F4"/>
        </linearGradient>
        <linearGradient id="paint2_linear" x1="132" y1="170" x2="132" y2="70" gradientUnits="userSpaceOnUse">
            <stop stop-color="#FD3A84"/>
            <stop offset="1" stop-color="#FFA68D"/>
        </linearGradient>
    </defs>
    <g opacity="0.4">
<path d="M192 0C165.658 0 145.454 14.8088 132 36.8464C118.544 14.8048 98.3384 0 72 0C51.5912 0 32.9696 8.61441 19.5672 24.256C6.9496 38.9832 0 58.6504 0 79.636C0 102.454 8.5584 123.55 26.9328 146.025C43.0432 165.73 66.1712 186.002 92.952 209.475C102.853 218.154 113.091 227.127 123.972 236.92C126.254 238.974 129.127 240 132 240C134.873 240 137.746 238.974 140.028 236.919C150.909 227.126 161.146 218.153 171.048 209.474C197.829 186.002 220.957 165.73 237.067 146.024C255.442 123.55 264 102.454 264 79.636C264 36.7264 234.602 0 192 0Z" fill="url(#paint0_linear)"/>
</g>
<path d="M172 40C154.438 40 140.969 49.8725 132 64.5643C123.029 49.8699 109.559 40 92 40C78.3941 40 65.9797 45.7429 57.0448 56.1707C48.6331 65.9888 44 79.1003 44 93.0907C44 108.303 49.7056 122.366 61.9552 137.35C72.6955 150.487 88.1141 164.001 105.968 179.65C112.569 185.436 119.394 191.418 126.648 197.947C128.17 199.316 130.085 200 132 200C133.915 200 135.83 199.316 137.352 197.946C144.606 191.418 151.431 185.435 158.032 179.65C175.886 164.001 191.305 150.486 202.045 137.349C214.294 122.367 220 108.303 220 93.0907C220 64.4843 200.401 40 172 40Z" fill="url(#paint1_linear)"/>
<g filter="url(#filter0_d)">
<path d="M157 70C146.024 70 137.606 76.1703 132 85.3527C126.393 76.1687 117.974 70 107 70C98.4963 70 90.7373 73.5893 85.153 80.1067C79.8957 86.243 77 94.4377 77 103.182C77 112.689 80.566 121.479 88.222 130.844C94.9347 139.054 104.571 147.501 115.73 157.281C119.855 160.897 124.121 164.636 128.655 168.717C129.606 169.572 130.803 170 132 170C133.197 170 134.394 169.572 135.345 168.716C139.879 164.636 144.144 160.897 148.27 157.281C159.429 147.501 169.065 139.054 175.778 130.843C183.434 121.479 187 112.689 187 103.182C187 85.3027 174.751 70 157 70Z" fill="url(#paint2_linear)"/>
</g>
</svg>
