<svg width="368" height="112" viewBox="0 0 368 112" fill="none" xmlns="http://www.w3.org/2000/svg">
<rect x="154" y="22.4" width="4" height="67.2" rx="2" fill="#FFF1F3"/>
<rect x="14" y="22.4" width="4" height="67.2" rx="2" fill="#FFF1F3"/>
<rect x="70" y="22.4" width="4" height="67.2" rx="2" fill="#FFF1F3"/>
<rect x="350" y="22.4" width="4" height="67.2" rx="2" fill="#FFF1F3"/>
<rect x="140" y="33.6" width="4" height="44.8" rx="2" fill="#FFF1F3"/>
<rect y="33.6" width="4" height="44.8" rx="2" fill="#FFF1F3"/>
<rect x="84" y="33.6" width="4" height="44.8" rx="2" fill="#FFF1F3"/>
<rect x="224" y="33.6" width="4" height="44.8" rx="2" fill="#FFF1F3"/>
<rect x="280" y="33.6" width="4" height="44.8" rx="2" fill="#FFF1F3"/>
<rect x="364" y="33.6" width="4" height="44.8" rx="2" fill="#FFF1F3"/>
<rect x="238" y="44.8" width="4" height="22.4" rx="2" fill="#FFF1F3"/>
<rect x="266" y="44.8" width="4" height="22.4" rx="2" fill="#FFF1F3"/>
<rect x="126" y="44.8" width="4" height="22.4" rx="2" fill="#FFF1F3"/>
<rect x="98" y="44.8" width="4" height="22.4" rx="2" fill="#FFF1F3"/>
<rect x="112" y="50.4" width="4" height="11.2" rx="2" fill="#FFF1F3"/>
<rect x="252" y="50.4" width="4" height="11.2" rx="2" fill="#FFF1F3"/>
<rect x="210" y="22.4" width="4" height="67.2" rx="2" fill="#FFF1F3"/>
<rect x="294" y="22.4" width="4" height="67.2" rx="2" fill="#FFF1F3"/>
<rect x="168" y="11.2" width="4" height="89.6" rx="2" fill="#FFF1F3"/>
<rect x="28" y="11.2" width="4" height="89.6" rx="2" fill="#FFF1F3"/>
<rect x="56" y="11.2" width="4" height="89.6" rx="2" fill="#FFF1F3"/>
<rect x="336" y="11.2" width="4" height="89.6" rx="2" fill="#FFF1F3"/>
<rect x="182" width="4" height="112" rx="2" fill="#FFF1F3"/>
<rect x="42" width="4" height="112" rx="2" fill="#FFF1F3"/>
<rect x="322" width="4" height="112" rx="2" fill="#FFF1F3"/>
<rect x="196" y="11.2" width="4" height="89.6" rx="2" fill="#FFF1F3"/>
<rect x="308" y="11.2" width="4" height="89.6" rx="2" fill="#FFF1F3"/>
</svg>
