<svg width="100" height="178" viewBox="0 0 100 178" fill="none" xmlns="http://www.w3.org/2000/svg">
<path d="M19.3103 2H80.6865C89.7525 2 97.1034 9.35088 97.1034 18.4169V61.3793V85.931V159.586C97.1034 168.649 89.7553 176 80.6896 176H19.3133C10.2474 176 2.89648 168.649 2.89648 159.583V85.931V61.3793V18.4138C2.89648 9.35088 10.2474 2 19.3103 2Z" fill="#FFF1F3" stroke="#FF6A89" stroke-width="4"/>
<path d="M25.4481 56.8103C21.1913 56.8103 17.7412 53.3603 17.7412 49.1034V24.5517C17.7412 20.2949 21.1913 16.8448 25.4481 16.8448C29.705 16.8448 33.155 20.2949 33.155 24.5517V49.1034C33.155 53.3599 29.7022 56.8103 25.4481 56.8103Z" stroke="#FF6A89" stroke-width="3"/>
<g opacity="0.2">
<mask id="path-3-inside-1" fill="white">
<path d="M25.4484 33.7586C23.7543 33.7586 22.3794 32.3837 22.3794 30.6896V27.6207C22.3794 25.9266 23.7543 24.5517 25.4484 24.5517C27.1424 24.5517 28.5173 25.9266 28.5173 27.6207V30.6896C28.5173 32.3837 27.1424 33.7586 25.4484 33.7586Z"/>
</mask>
<path d="M25.4484 33.7586C23.7543 33.7586 22.3794 32.3837 22.3794 30.6896V27.6207C22.3794 25.9266 23.7543 24.5517 25.4484 24.5517C27.1424 24.5517 28.5173 25.9266 28.5173 27.6207V30.6896C28.5173 32.3837 27.1424 33.7586 25.4484 33.7586Z" fill="#121212"/>
<path d="M25.4484 24.931C28.6296 24.931 31.207 27.5084 31.207 30.6896H13.5518C13.5518 37.2591 18.879 42.5862 25.4484 42.5862V24.931ZM31.207 30.6896V27.6207H13.5518V30.6896H31.207ZM31.207 27.6207C31.207 30.802 28.6296 33.3793 25.4484 33.3793V15.7241C18.879 15.7241 13.5518 21.0512 13.5518 27.6207H31.207ZM25.4484 33.3793C22.2671 33.3793 19.6898 30.802 19.6898 27.6207H37.3449C37.3449 21.0512 32.0178 15.7241 25.4484 15.7241V33.3793ZM19.6898 27.6207V30.6896H37.3449V27.6207H19.6898ZM19.6898 30.6896C19.6898 27.5084 22.2671 24.931 25.4484 24.931V42.5862C32.0178 42.5862 37.3449 37.2591 37.3449 30.6896H19.6898Z" fill="#FF6A89" mask="url(#path-3-inside-1)"/>
</g>
<g opacity="0.3">
<mask id="path-5-inside-2" fill="white">
<path d="M25.4484 49.1034C23.7543 49.1034 22.3794 47.7286 22.3794 46.0345V42.9655C22.3794 41.2714 23.7543 39.8966 25.4484 39.8966C27.1424 39.8966 28.5173 41.2714 28.5173 42.9655V46.0345C28.5173 47.7286 27.1424 49.1034 25.4484 49.1034Z"/>
</mask>
<path d="M25.4484 49.1034C23.7543 49.1034 22.3794 47.7286 22.3794 46.0345V42.9655C22.3794 41.2714 23.7543 39.8966 25.4484 39.8966C27.1424 39.8966 28.5173 41.2714 28.5173 42.9655V46.0345C28.5173 47.7286 27.1424 49.1034 25.4484 49.1034Z" fill="#121212"/>
<path d="M25.4484 40.2759C28.6296 40.2759 31.207 42.8532 31.207 46.0345H13.5518C13.5518 52.6039 18.879 57.931 25.4484 57.931V40.2759ZM31.207 46.0345V42.9655H13.5518V46.0345H31.207ZM31.207 42.9655C31.207 46.1468 28.6296 48.7241 25.4484 48.7241V31.069C18.879 31.069 13.5518 36.3961 13.5518 42.9655H31.207ZM25.4484 48.7241C22.2671 48.7241 19.6898 46.1468 19.6898 42.9655H37.3449C37.3449 36.3961 32.0178 31.069 25.4484 31.069V48.7241ZM19.6898 42.9655V46.0345H37.3449V42.9655H19.6898ZM19.6898 46.0345C19.6898 42.8532 22.2671 40.2759 25.4484 40.2759V57.931C32.0178 57.931 37.3449 52.6039 37.3449 46.0345H19.6898Z" fill="#FF6A89" mask="url(#path-5-inside-2)"/>
</g>
<path d="M77.9626 143.88C77.645 141.449 77.4332 138.983 77.3979 136.481C77.1156 119.956 79.5509 98.3576 63.7038 88.2454C56.5744 83.7002 47.1862 83.4183 41.3979 76.5477C39.2803 74.0108 38.1156 70.8045 37.0568 67.6334C33.6685 57.8031 30.4215 47.9375 27.2803 38.0367C24.0332 38.389 22.1979 42.0181 21.4921 45.2949C19.4097 54.8081 22.0215 64.709 25.3744 73.7994C28.7626 82.8898 32.9626 91.8041 34.3744 101.423C34.9038 105.087 33.8097 110.196 30.2097 110.055C28.3391 109.985 26.892 108.294 25.9391 106.602C22.0215 99.767 20.8568 90.0424 13.6921 87.1884C11.7862 86.4485 9.06852 86.6951 8.46852 88.7035C8.15088 89.7957 7.76264 90.9585 8.18617 91.9803C14.1509 106.708 18.5979 120.027 27.7744 132.887C31.2685 137.785 38.6803 142.894 42.0685 147.897C46.3038 154.169 49.9744 160.793 53.4685 167.487C58.4803 177.141 60.0332 183.624 72.245 184.717C76.1979 185.069 80.1862 185.21 84.1391 185.104C97.3391 184.752 91.7273 170.447 87.1744 163.506C82.8332 156.917 79.0215 152.196 77.9626 143.88Z" fill="#EAC2AB"/>
</svg>
