<svg width="30" height="28" viewBox="0 0 30 28" fill="none" xmlns="http://www.w3.org/2000/svg">
    <defs>
        <linearGradient id="paint0_linear" x1="15" y1="28" x2="15" y2="0" gradientUnits="userSpaceOnUse">
            <stop stop-color="#FD3A84"/>
            <stop offset="1" stop-color="#FFA68D"/>
        </linearGradient>
    </defs>
    <path d="M21.8182 0C18.8247 0 16.5288 1.72769 15 4.29875C13.4709 1.72723 11.1748 0 8.18182 0C5.86264 0 3.74655 1.00501 2.22355 2.82987C0.789727 4.54804 0 6.84255 0 9.29087C0 11.953 0.972545 14.4141 3.06055 17.0362C4.89127 19.3352 7.51945 21.7002 10.5627 24.4388C11.6878 25.4513 12.8513 26.4982 14.0877 27.6407C14.3471 27.8803 14.6735 28 15 28C15.3265 28 15.6529 27.8803 15.9123 27.6406C17.1487 26.4981 18.3121 25.4512 19.4373 24.4387C22.4805 21.7002 25.1087 19.3351 26.9395 17.0361C29.0275 14.4142 30 11.953 30 9.29087C30 4.28475 26.6593 0 21.8182 0Z" fill="url(#paint0_linear)"/>
</svg>