<svg width="28" height="28" viewBox="0 0 28 28" fill="none" xmlns="http://www.w3.org/2000/svg">
<path d="M28 14C28 12.9587 27.2497 11.8485 26.3246 11.5211C25.3996 11.1936 24.5029 10.3918 24.242 9.7595C23.9811 9.12719 24.0488 7.92388 24.4711 7.0376C24.8928 6.15132 24.6371 4.83521 23.9007 4.09876C23.1648 3.36231 21.8487 3.10719 20.9618 3.52893C20.0755 3.95066 18.874 4.0195 18.2434 3.75859C17.6128 3.49769 16.8104 2.59983 16.4818 1.67479C16.1526 0.749752 15.0413 0 14 0C12.9587 0 11.8474 0.749752 11.5182 1.67479C11.189 2.59983 10.3872 3.49769 9.75661 3.75859C9.12603 4.0195 7.92388 3.95066 7.0376 3.52893C6.15132 3.10719 4.83521 3.36231 4.09876 4.09876C3.36231 4.83521 3.10719 6.15074 3.52893 7.0376C3.95066 7.92446 4.01777 9.12661 3.7557 9.75835C3.49364 10.3901 2.59983 11.1936 1.67479 11.5211C0.749752 11.8485 0 12.9587 0 14C0 15.0413 0.749752 16.1526 1.67479 16.4818C2.59983 16.8104 3.49479 17.614 3.75686 18.2445C4.01893 18.8745 3.95066 20.0761 3.52893 20.9624C3.10719 21.8487 3.36231 23.1648 4.09876 23.9012C4.83521 24.6371 6.15074 24.8928 7.0376 24.4711C7.92446 24.0493 9.12603 23.9811 9.75661 24.2426C10.3878 24.504 11.189 25.4042 11.5182 26.3275C11.8474 27.2508 12.9587 28 14 28C15.0413 28 16.1526 27.2508 16.4818 26.3275C16.8104 25.4042 17.6117 24.5052 18.2422 24.2426C18.8728 23.9805 20.0761 24.0493 20.9618 24.4717C21.8487 24.8934 23.1648 24.6377 23.9007 23.9018C24.6371 23.1654 24.8928 21.8493 24.4711 20.963C24.0493 20.0761 23.9799 18.8745 24.2408 18.244C24.5017 17.6134 25.4002 16.811 26.3252 16.4824C27.2502 16.1526 28 15.0413 28 14ZM14 19.1372C11.1595 19.1372 8.86281 16.8405 8.86281 14.0058C8.86281 11.1653 11.1595 8.86859 14 8.86859C16.8341 8.86859 19.1314 11.1653 19.1314 14.0058C19.1314 16.8405 16.8347 19.1372 14 19.1372Z" fill="url(#paint0_linear)"/>
<defs>
<linearGradient id="paint0_linear" x1="14" y1="28" x2="14" y2="0" gradientUnits="userSpaceOnUse">
<stop stop-color="#FD3A84"/>
<stop offset="1" stop-color="#FFA68D"/>
</linearGradient>
</defs>
</svg>
