<svg width="28" height="22" viewBox="0 0 28 22" fill="none" xmlns="http://www.w3.org/2000/svg">
<path d="M13.6957 21.5997C13.0583 21.6015 12.4874 21.2052 12.2652 20.6075L8.61301 10.6492L7.13995 13.6927C6.87881 14.2016 6.35474 14.5218 5.78255 14.5205H1.52173C0.681133 14.5205 0 13.8395 0 12.9988C0 12.1582 0.681133 11.4771 1.52173 11.4771H4.83306L7.45653 6.09015C7.82359 5.33415 8.73359 5.01822 9.48959 5.38528C9.84627 5.55815 10.1214 5.86374 10.2565 6.23622L13.4765 15.0319L17.1287 1.53102C17.3447 0.719016 18.1787 0.235688 18.9907 0.451813C19.4873 0.583883 19.8836 0.957617 20.0443 1.44581L23.3191 11.4771H26.4783C27.3189 11.4771 28 12.1583 28 12.9989C28 13.8395 27.3189 14.5206 26.4783 14.5206H22.2174C21.5612 14.5194 20.9793 14.0969 20.7748 13.4737L18.7174 7.21627L15.1626 20.4676C14.9909 21.1079 14.4249 21.5633 13.7626 21.5937L13.6957 21.5997Z" fill="#121212"/>
</svg>
