<svg width="27" height="24" viewBox="0 0 27 24" fill="none" xmlns="http://www.w3.org/2000/svg">
<path d="M19.2 0C16.5658 0 14.5454 1.48088 13.2 3.68464C11.8544 1.48048 9.83384 0 7.2 0C5.15912 0 3.29696 0.861441 1.95672 2.4256C0.69496 3.89832 0 5.86504 0 7.9636C0 10.2454 0.85584 12.355 2.69328 14.6025C4.30432 16.573 6.61712 18.6002 9.2952 20.9475C10.2853 21.8154 11.3091 22.7127 12.3972 23.692C12.6254 23.8974 12.9127 24 13.2 24C13.4873 24 13.7746 23.8974 14.0028 23.6919C15.0909 22.7126 16.1146 21.8153 17.1048 20.9474C19.7829 18.6002 22.0957 16.573 23.7067 14.6024C25.5442 12.355 26.4 10.2454 26.4 7.9636C26.4 3.67264 23.4602 0 19.2 0Z" fill="url(#paint0_linear)"/>
<defs>
<linearGradient id="paint0_linear" x1="13.2" y1="24" x2="13.2" y2="0" gradientUnits="userSpaceOnUse">
<stop stop-color="#FD3A84"/>
<stop offset="1" stop-color="#FFA68D"/>
</linearGradient>
</defs>
</svg>
